<svg width="500" height="500" viewBox="0 0 500 500" fill="none" xmlns="http://www.w3.org/2000/svg">
<path d="M500 382.4H0V382.65H500V382.4Z" fill="#EBEBEB"/>
<path d="M449.9 398.49H416.78V398.74H449.9V398.49Z" fill="#EBEBEB"/>
<path d="M273.22 395.36H260.33V395.61H273.22V395.36Z" fill="#EBEBEB"/>
<path d="M349.67 396.42H322.53V396.67H349.67V396.42Z" fill="#EBEBEB"/>
<path d="M415.78 389.21H359.67V389.46H415.78V389.21Z" fill="#EBEBEB"/>
<path d="M78.99 400.78H52.46V401.03H78.99V400.78Z" fill="#EBEBEB"/>
<path d="M110.89 400.78H87.8896V401.03H110.89V400.78Z" fill="#EBEBEB"/>
<path d="M191.81 395.24H131V395.49H191.81V395.24Z" fill="#EBEBEB"/>
<path d="M237 337.8H43.91C42.3973 337.797 40.9475 337.195 39.8788 336.124C38.8102 335.054 38.21 333.603 38.21 332.09V60.66C38.2231 59.156 38.8292 57.718 39.8964 56.6582C40.9637 55.5985 42.4059 55.0026 43.91 55H237C238.514 55 239.967 55.6016 241.038 56.6724C242.108 57.7433 242.71 59.1956 242.71 60.71V332.09C242.71 333.604 242.108 335.057 241.038 336.128C239.967 337.198 238.514 337.8 237 337.8V337.8ZM43.91 55.2C42.4636 55.2026 41.0774 55.7791 40.0556 56.8027C39.0338 57.8264 38.46 59.2136 38.46 60.66V332.09C38.46 333.536 39.0338 334.924 40.0556 335.947C41.0774 336.971 42.4636 337.547 43.91 337.55H237C238.447 337.547 239.834 336.971 240.858 335.948C241.881 334.924 242.457 333.537 242.46 332.09V60.66C242.457 59.2127 241.881 57.8255 240.858 56.8021C239.834 55.7787 238.447 55.2026 237 55.2H43.91Z" fill="#EBEBEB"/>
<path d="M453.31 337.8H260.21C258.696 337.797 257.246 337.195 256.175 336.125C255.105 335.054 254.503 333.604 254.5 332.09V60.66C254.516 59.1551 255.124 57.7171 256.193 56.6576C257.262 55.5981 258.705 55.0025 260.21 55H453.31C454.812 55.0052 456.252 55.6022 457.317 56.6617C458.382 57.7212 458.987 59.1578 459 60.66V332.09C459 333.601 458.401 335.05 457.335 336.121C456.268 337.191 454.821 337.795 453.31 337.8V337.8ZM260.21 55.2C258.763 55.2026 257.375 55.7787 256.352 56.8021C255.329 57.8255 254.753 59.2127 254.75 60.66V332.09C254.753 333.537 255.329 334.924 256.352 335.948C257.375 336.971 258.763 337.547 260.21 337.55H453.31C454.757 337.547 456.145 336.971 457.168 335.948C458.191 334.924 458.767 333.537 458.77 332.09V60.66C458.767 59.2127 458.191 57.8255 457.168 56.8021C456.145 55.7787 454.757 55.2026 453.31 55.2H260.21Z" fill="#EBEBEB"/>
<path d="M446.33 78H294.98V382.4H446.33V78Z" fill="#FAFAFA"/>
<path d="M397.65 117H343.65V192.33H397.65V117Z" fill="white"/>
<path d="M446.32 382.4H447.26L447.26 77.9999H446.32L446.32 382.4Z" fill="#EBEBEB"/>
<path d="M438.82 382.4H437.82V86.5H303.48V382.4H302.48V85.5H438.82V382.4Z" fill="#E0E0E0"/>
<path d="M427.19 235.83H406.32C405.903 235.854 405.485 235.792 405.093 235.649C404.7 235.506 404.341 235.284 404.037 234.997C403.733 234.71 403.491 234.364 403.326 233.98C403.161 233.596 403.075 233.183 403.075 232.765C403.075 232.347 403.161 231.933 403.326 231.55C403.491 231.166 403.733 230.82 404.037 230.533C404.341 230.246 404.7 230.024 405.093 229.881C405.485 229.738 405.903 229.676 406.32 229.7H427.19C427.608 229.676 428.025 229.738 428.418 229.881C428.81 230.024 429.17 230.246 429.473 230.533C429.777 230.82 430.019 231.166 430.185 231.55C430.35 231.933 430.435 232.347 430.435 232.765C430.435 233.183 430.35 233.596 430.185 233.98C430.019 234.364 429.777 234.71 429.473 234.997C429.17 235.284 428.81 235.506 428.418 235.649C428.025 235.792 427.608 235.854 427.19 235.83ZM406.32 230.7C406.037 230.68 405.753 230.719 405.485 230.814C405.217 230.909 404.972 231.057 404.765 231.251C404.557 231.445 404.391 231.679 404.278 231.94C404.165 232.2 404.107 232.481 404.107 232.765C404.107 233.049 404.165 233.33 404.278 233.59C404.391 233.851 404.557 234.085 404.765 234.279C404.972 234.472 405.217 234.621 405.485 234.716C405.753 234.811 406.037 234.85 406.32 234.83H427.19C427.474 234.85 427.758 234.811 428.026 234.716C428.293 234.621 428.538 234.472 428.746 234.279C428.954 234.085 429.119 233.851 429.233 233.59C429.346 233.33 429.404 233.049 429.404 232.765C429.404 232.481 429.346 232.2 429.233 231.94C429.119 231.679 428.954 231.445 428.746 231.251C428.538 231.057 428.293 230.909 428.026 230.814C427.758 230.719 427.474 230.68 427.19 230.7H406.32Z" fill="#E0E0E0"/>
<path d="M196.74 163.44H55.9697V175.52H196.74V163.44Z" fill="#FAFAFA"/>
<path d="M196.73 175.52H57.7695V382.4H196.73V175.52Z" fill="#FAFAFA"/>
<path d="M196.74 382.4H206.94L206.94 163.45H196.74L196.74 382.4Z" fill="#F0F0F0"/>
<path d="M123.19 187.52H69.4404V309.77H123.19V187.52Z" fill="#F0F0F0"/>
<path d="M107.83 187.52H95.2198L84.7998 309.76H97.3998L107.83 187.52Z" fill="white"/>
<path d="M183.32 373H71.1896C70.5592 372.998 69.9553 372.746 69.5096 372.3C69.0638 371.854 68.8122 371.251 68.8096 370.62V319.62C68.8122 318.99 69.0638 318.386 69.5096 317.94C69.9553 317.494 70.5592 317.243 71.1896 317.24H183.32C183.95 317.243 184.554 317.494 185 317.94C185.445 318.386 185.697 318.99 185.7 319.62V370.62C185.697 371.251 185.445 371.854 185 372.3C184.554 372.746 183.95 372.998 183.32 373V373ZM71.1896 318.44C70.8907 318.443 70.6048 318.563 70.3934 318.774C70.1821 318.985 70.0622 319.271 70.0596 319.57V370.57C70.0622 370.869 70.1821 371.155 70.3934 371.366C70.6048 371.578 70.8907 371.698 71.1896 371.7H183.32C183.618 371.698 183.904 371.578 184.116 371.366C184.327 371.155 184.447 370.869 184.45 370.57V319.57C184.447 319.271 184.327 318.985 184.116 318.774C183.904 318.563 183.618 318.443 183.32 318.44H71.1896Z" fill="#F0F0F0"/>
<path d="M176 329.51C175.481 329.51 174.974 329.356 174.543 329.068C174.112 328.779 173.776 328.37 173.578 327.89C173.38 327.411 173.329 326.884 173.431 326.375C173.533 325.867 173.783 325.4 174.151 325.034C174.518 324.668 174.986 324.419 175.495 324.319C176.004 324.219 176.531 324.273 177.009 324.472C177.488 324.672 177.897 325.01 178.183 325.442C178.47 325.874 178.622 326.381 178.62 326.9C178.62 327.244 178.552 327.584 178.42 327.901C178.288 328.218 178.095 328.507 177.852 328.749C177.608 328.992 177.32 329.184 177.002 329.314C176.684 329.445 176.343 329.511 176 329.51V329.51ZM176 325.51C175.729 325.51 175.464 325.59 175.239 325.741C175.013 325.891 174.838 326.105 174.734 326.356C174.63 326.606 174.603 326.882 174.656 327.147C174.709 327.413 174.84 327.657 175.031 327.849C175.223 328.04 175.467 328.171 175.733 328.224C175.998 328.277 176.274 328.249 176.524 328.146C176.774 328.042 176.988 327.866 177.139 327.641C177.29 327.416 177.37 327.151 177.37 326.88C177.369 326.701 177.332 326.525 177.263 326.36C177.193 326.196 177.092 326.047 176.964 325.921C176.837 325.796 176.687 325.697 176.521 325.63C176.356 325.563 176.178 325.529 176 325.53V325.51Z" fill="#F0F0F0"/>
<path d="M70.8304 187.52H69.4404V309.77H70.8304V187.52Z" fill="#EBEBEB"/>
<path d="M185.07 187.52H131.32V309.77H185.07V187.52Z" fill="#F0F0F0"/>
<path d="M156.22 187.52H151.03L140.61 309.76H145.8L156.22 187.52Z" fill="white"/>
<path d="M164.03 187.52H158.84L148.41 309.76H153.6L164.03 187.52Z" fill="white"/>
<path d="M132.71 187.52H131.32V309.77H132.71V187.52Z" fill="#EBEBEB"/>
<path d="M196.73 175.52H57.7695V177.05H196.73V175.52Z" fill="#EBEBEB"/>
<path d="M224.33 75.7002H80V145.37H224.33V75.7002Z" fill="#FAFAFA"/>
<path d="M170.7 136.41C165.583 136.41 160.582 134.893 156.327 132.05C152.073 129.207 148.757 125.167 146.799 120.44C144.841 115.713 144.329 110.511 145.327 105.493C146.325 100.475 148.789 95.8651 152.407 92.2471C156.025 88.6291 160.635 86.1652 165.653 85.167C170.671 84.1688 175.873 84.6811 180.6 86.6392C185.327 88.5972 189.368 91.913 192.21 96.1673C195.053 100.422 196.57 105.423 196.57 110.54C196.56 117.398 193.831 123.972 188.981 128.821C184.132 133.67 177.558 136.399 170.7 136.41ZM170.7 85.6699C165.781 85.6699 160.973 87.1285 156.883 89.8613C152.793 92.594 149.606 96.4782 147.723 101.023C145.841 105.567 145.348 110.568 146.308 115.392C147.268 120.216 149.636 124.648 153.114 128.126C156.592 131.604 161.024 133.972 165.848 134.932C170.672 135.892 175.673 135.399 180.217 133.517C184.762 131.634 188.646 128.447 191.379 124.357C194.111 120.267 195.57 115.459 195.57 110.54C195.562 103.946 192.939 97.6253 188.277 92.963C183.615 88.3006 177.294 85.6779 170.7 85.6699V85.6699Z" fill="white"/>
<path d="M199.59 92.1699C200.808 88.9074 201.024 85.3558 200.21 81.9699L197.51 81.8799C198.112 85.1669 197.704 88.5592 196.34 91.6099C186.51 91.5299 184.77 101.9 176.92 99.6099C174.118 98.9002 171.197 98.7945 168.35 99.2999V99.2999C167.167 99.4809 165.997 99.7449 164.85 100.09C154.45 102.8 141.75 109.28 139.49 119.01L141.9 119.47C141.9 119.47 143.47 112.25 153.9 107.1C152.909 108.404 152.172 109.883 151.73 111.46C145.32 135.04 188.79 130.89 200.32 122.66C214.42 112.65 208.41 95.6499 199.59 92.1699Z" fill="#EBEBEB"/>
<path d="M130.67 83.5898H87.1104V86.3699H130.67V83.5898Z" fill="#EBEBEB"/>
<path d="M119.67 90.6802H87.1104V93.4602H119.67V90.6802Z" fill="#EBEBEB"/>
<path d="M130.67 104.85H87.1104V107.63H130.67V104.85Z" fill="#EBEBEB"/>
<path d="M108.17 111.94H87.1104V114.72H108.17V111.94Z" fill="#EBEBEB"/>
<path d="M126.58 111.94H111.58V114.72H126.58V111.94Z" fill="#EBEBEB"/>
<path d="M122.17 119.03H87.1104V121.81H122.17V119.03Z" fill="#EBEBEB"/>
<path d="M130.67 126.11H87.1104V128.89H130.67V126.11Z" fill="#EBEBEB"/>
<path d="M270.41 382.4H229.3C228.834 382.399 228.385 382.229 228.036 381.922C227.686 381.615 227.46 381.191 227.4 380.73L219.1 314.68C219.067 314.411 219.092 314.138 219.173 313.879C219.253 313.62 219.388 313.381 219.567 313.178C219.747 312.975 219.967 312.812 220.214 312.701C220.461 312.589 220.729 312.531 221 312.53H278.71C278.981 312.531 279.249 312.589 279.495 312.701C279.742 312.812 279.963 312.975 280.142 313.178C280.322 313.381 280.456 313.62 280.537 313.879C280.617 314.138 280.642 314.411 280.61 314.68L272.31 380.73C272.251 381.192 272.026 381.617 271.676 381.924C271.326 382.232 270.876 382.401 270.41 382.4V382.4Z" fill="#EBEBEB"/>
<path opacity="0.7" d="M218.21 311.17C216.71 312.25 217.9 328.97 219.87 332.66C221.84 336.35 233.6 333.18 247.64 331.94C261.68 330.7 278.5 335.66 279.23 332.66C279.96 329.66 284.06 313.34 281.91 311.17C280.19 309.43 259.51 309.43 250.42 310.47C241.33 311.51 221.41 308.88 218.21 311.17Z" fill="#F5F5F5"/>
<path d="M250 427.56C357.083 427.56 443.89 422.492 443.89 416.24C443.89 409.988 357.083 404.92 250 404.92C142.918 404.92 56.1104 409.988 56.1104 416.24C56.1104 422.492 142.918 427.56 250 427.56Z" fill="#F5F5F5"/>
<path d="M164 101.38C156.45 94.2901 144 92.9301 139.34 100.31C134.68 107.69 137.34 115.49 127.78 123.67C121.28 129.26 126.1 146.39 163.18 144.82C180.73 144.08 174.79 125.82 174.32 117.19C173.85 108.56 173.82 98.0001 164 101.38Z" fill="#263238"/>
<path d="M149.39 402.42L140.41 402.77L140.24 393.05L149.22 392.7L149.39 402.42Z" fill="#B55B52"/>
<path d="M139.85 400.91H150C150.179 400.908 150.353 400.967 150.493 401.078C150.633 401.19 150.731 401.345 150.77 401.52L152.53 409.57C152.57 409.766 152.566 409.969 152.518 410.163C152.47 410.358 152.378 410.539 152.251 410.693C152.123 410.848 151.962 410.972 151.781 411.056C151.599 411.14 151.4 411.183 151.2 411.18C147.65 411.12 145.93 410.91 141.46 410.91C138.71 410.91 131.58 411.2 127.78 411.2C123.98 411.2 123.5 407.44 125.05 407.1C132.05 405.57 136.12 403.47 138.36 401.46C138.771 401.097 139.302 400.901 139.85 400.91V400.91Z" fill="#263238"/>
<path opacity="0.2" d="M140.24 393.06L140.32 397.58L149.3 397.19L149.22 392.71L140.24 393.06Z" fill="black"/>
<path d="M126.999 206.65C124.999 217.43 127.299 270.12 130.349 293.39C134.409 324.29 138.609 396.04 138.609 396.04L150.609 395.32C150.609 395.32 153.609 319.76 151.159 294.95C152.549 263.02 155.989 207.25 155.989 207.25L126.999 206.65Z" fill="#407BFF"/>
<path opacity="0.2" d="M154 242C154.42 233.91 148.69 226.72 146.38 242C144.92 251.71 147.94 268.73 151.9 280.75C152.51 268.24 153.29 254.31 154 242Z" fill="black"/>
<path d="M215.37 372.19L209.53 377.77L201.62 369.29L207.45 363.72L215.37 372.19Z" fill="#B55B52"/>
<path d="M208 377.92L214 369.7C214.098 369.557 214.246 369.457 214.415 369.42C214.584 369.382 214.761 369.411 214.91 369.5L221.91 373.62C222.082 373.734 222.23 373.882 222.344 374.055C222.457 374.228 222.535 374.422 222.573 374.625C222.61 374.829 222.606 375.037 222.561 375.239C222.516 375.441 222.43 375.632 222.31 375.8C220.18 378.63 219.01 379.88 216.38 383.5C214.76 385.72 212.89 388.78 210.66 391.86C208.43 394.94 205.38 392.73 206.04 391.24C209.04 384.55 207.77 382.69 207.61 379.5C207.558 378.944 207.696 378.388 208 377.92V377.92Z" fill="#263238"/>
<path opacity="0.2" d="M201.62 369.3L205.7 373.66L211.49 368.04L207.46 363.72L201.62 369.3Z" fill="black"/>
<path d="M140.92 206.94C140.92 206.94 153.84 274.94 157.2 301.34C159.2 317.11 203.3 373.85 203.3 373.85L210.83 365.92C210.83 365.92 194.69 324.38 175.25 299.74C174.48 270.86 177.76 223.32 166.6 207.47L140.92 206.94Z" fill="#407BFF"/>
<path d="M129.58 154.8C129.58 160.64 129.31 166.37 128.88 172.16C128.45 177.95 127.88 183.71 126.95 189.51L126.78 190.6L126.55 191.83C126.376 192.637 126.186 193.427 125.98 194.2C125.54 195.73 124.98 197.2 124.48 198.62C123.386 201.404 122.144 204.128 120.76 206.78C118.034 211.966 114.929 216.943 111.47 221.67C111.105 222.16 110.571 222.498 109.972 222.619C109.373 222.74 108.75 222.636 108.224 222.326C107.697 222.016 107.303 221.523 107.118 220.94C106.932 220.358 106.969 219.727 107.22 219.17V219.11C109.57 214.03 111.85 208.82 113.84 203.66C114.84 201.08 115.73 198.47 116.49 195.91C116.85 194.63 117.17 193.36 117.42 192.12C117.55 191.5 117.64 190.89 117.73 190.29L117.83 189.4L117.93 188.4C118.44 182.86 118.74 177.24 119.02 171.61C119.3 165.98 119.43 160.3 119.59 154.72V154.67C119.611 153.344 120.158 152.081 121.111 151.158C122.063 150.235 123.344 149.729 124.67 149.75C125.996 149.771 127.259 150.319 128.182 151.271C129.104 152.224 129.611 153.504 129.59 154.83L129.58 154.8Z" fill="#B55B52"/>
<path d="M126.32 147.49C114.04 151.08 115.62 173.42 115.62 173.42L133.08 178.12C133.08 178.12 135.98 161.76 135.72 155.89C135.46 149.79 133.09 145.52 126.32 147.49Z" fill="#407BFF"/>
<path d="M108.52 217.88L102.37 223.11L110.99 226.63C110.99 226.63 113.66 222.56 112.42 218.7L108.52 217.88Z" fill="#B55B52"/>
<path d="M103.46 231.09L107.39 231.58C107.826 231.635 108.269 231.544 108.648 231.322C109.028 231.099 109.324 230.758 109.49 230.35L110.99 226.63L102.37 223.11L101.72 228.88C101.66 229.404 101.81 229.929 102.136 230.343C102.461 230.757 102.937 231.025 103.46 231.09Z" fill="#B55B52"/>
<path d="M122.35 153.3C121.8 175.7 126.95 192.05 127.01 206.65L166.6 207.47C166.31 192.85 166.43 183.31 172.72 157.11C172.993 155.969 173.026 154.783 172.815 153.629C172.605 152.475 172.156 151.377 171.497 150.406C170.838 149.434 169.984 148.611 168.989 147.989C167.995 147.366 166.881 146.958 165.72 146.79C163.35 146.44 160.72 146.11 158.05 145.93C152.066 145.376 146.051 145.249 140.05 145.55C135.83 145.85 131.29 146.47 128.05 146.96C126.511 147.189 125.099 147.947 124.059 149.105C123.019 150.262 122.414 151.745 122.35 153.3V153.3Z" fill="#407BFF"/>
<path d="M159.25 174L147.51 173.92C147.393 173.925 147.277 173.905 147.168 173.861C147.06 173.816 146.963 173.749 146.883 173.664C146.803 173.578 146.743 173.476 146.706 173.365C146.669 173.254 146.657 173.137 146.67 173.02L147.32 167.46C147.362 167.212 147.491 166.987 147.683 166.824C147.875 166.661 148.118 166.571 148.37 166.57L160.1 166.65C160.217 166.644 160.333 166.663 160.441 166.706C160.55 166.749 160.647 166.815 160.727 166.9C160.807 166.985 160.868 167.086 160.904 167.197C160.941 167.307 160.953 167.424 160.94 167.54L160.29 173.11C160.25 173.358 160.123 173.583 159.933 173.746C159.743 173.909 159.501 173.999 159.25 174V174Z" fill="white"/>
<path opacity="0.4" d="M140.11 145.56C140.11 145.56 133.65 150.08 140.48 161.42C146.088 155.966 151.965 150.796 158.09 145.93L140.11 145.56Z" fill="white"/>
<path d="M156.73 125.65C155.48 131.41 154.12 141.99 158.09 145.93C151.847 148.389 146.091 151.938 141.09 156.41C136.7 148.35 140.09 145.55 140.09 145.55C146.57 144.15 146.51 139.36 145.48 134.84L156.73 125.65Z" fill="#B55B52"/>
<path opacity="0.2" d="M155.51 126.65C155.354 130.092 154.464 133.461 152.9 136.53C151.81 138.64 148.9 139.53 145.97 139.7C146.067 138.066 145.908 136.426 145.5 134.84L155.51 126.65Z" fill="black"/>
<path d="M166.1 118.6C163.1 127.82 162.1 131.78 156.1 135.38C147.15 140.79 136.48 135.14 136.62 125.23C136.76 116.31 141.62 102.74 151.69 101.35C153.919 101.027 156.195 101.281 158.299 102.086C160.404 102.891 162.267 104.222 163.711 105.951C165.156 107.681 166.134 109.751 166.552 111.965C166.97 114.179 166.814 116.463 166.1 118.6V118.6Z" fill="#B55B52"/>
<path d="M141.649 106.49C146.649 107.9 158.829 108.95 161.269 107.49C158.979 111.01 161.159 120.63 164.699 122.96C169.469 119.13 170.529 109.87 166.119 105.28C161.709 100.69 147.769 95.1999 141.649 106.49Z" fill="#263238"/>
<path d="M167.5 124.24C167.184 125.118 166.696 125.925 166.064 126.612C165.432 127.299 164.669 127.852 163.82 128.24C161.56 129.24 160.06 127.32 160.38 124.99C160.67 122.9 162.2 119.85 164.62 119.81C165.142 119.817 165.655 119.953 166.112 120.205C166.569 120.458 166.957 120.819 167.242 121.256C167.527 121.694 167.699 122.196 167.744 122.716C167.789 123.236 167.705 123.76 167.5 124.24V124.24Z" fill="#B55B52"/>
<path d="M167.239 205.16L168.959 208.75C169.089 209.02 168.759 209.3 168.299 209.29L126.769 208.42C126.419 208.42 126.129 208.23 126.109 208L125.819 204.45C125.819 204.21 126.119 204.01 126.509 204.01L166.609 204.85C166.732 204.843 166.855 204.868 166.965 204.922C167.076 204.976 167.17 205.058 167.239 205.16Z" fill="#263238"/>
<path d="M161.77 209.53H162.84C163.05 209.53 163.22 209.42 163.21 209.29L162.8 204.67C162.8 204.54 162.6 204.42 162.39 204.42H161.31C161.1 204.42 160.94 204.52 160.95 204.66L161.35 209.27C161.37 209.42 161.55 209.53 161.77 209.53Z" fill="#407BFF"/>
<path d="M129.779 208.87H130.859C131.069 208.87 131.239 208.77 131.229 208.63L130.819 204.01C130.819 203.88 130.619 203.77 130.409 203.76H129.329C129.119 203.76 128.949 203.86 128.969 204L129.369 208.61C129.389 208.75 129.569 208.86 129.779 208.87Z" fill="#407BFF"/>
<path d="M145.769 209.2H146.849C147.059 209.2 147.229 209.1 147.219 208.96L146.809 204.35C146.809 204.21 146.609 204.1 146.399 204.1H145.319C145.109 204.1 144.949 204.21 144.959 204.34L145.359 208.96C145.379 209.08 145.559 209.2 145.769 209.2Z" fill="#407BFF"/>
<path d="M151.71 117.83C151.51 118.59 150.95 119.11 150.45 118.98C149.95 118.85 149.71 118.13 149.9 117.37C150.09 116.61 150.66 116.09 151.16 116.22C151.66 116.35 151.9 117.07 151.71 117.83Z" fill="#263238"/>
<path d="M143.09 115.63C142.9 116.4 142.34 116.91 141.84 116.78C141.34 116.65 141.09 115.94 141.29 115.17C141.49 114.4 142.04 113.9 142.54 114.02C143.04 114.14 143.29 114.87 143.09 115.63Z" fill="#263238"/>
<path d="M142.75 114.12L141.05 113.12C141.05 113.12 141.63 114.8 142.75 114.12Z" fill="#263238"/>
<path d="M145 117.52C143.88 119.087 142.551 120.494 141.05 121.7C141.367 122.076 141.762 122.377 142.207 122.585C142.653 122.792 143.138 122.9 143.63 122.9L145 117.52Z" fill="#A02724"/>
<path d="M145.48 125.89C145.445 125.86 145.419 125.821 145.404 125.776C145.39 125.732 145.389 125.685 145.4 125.64C145.409 125.611 145.424 125.584 145.443 125.561C145.463 125.538 145.487 125.519 145.514 125.505C145.541 125.491 145.57 125.482 145.6 125.48C145.631 125.477 145.661 125.481 145.69 125.49C146.624 125.783 147.614 125.852 148.579 125.692C149.545 125.533 150.46 125.148 151.25 124.57C151.296 124.53 151.357 124.511 151.418 124.515C151.479 124.52 151.535 124.549 151.575 124.595C151.615 124.642 151.634 124.702 151.63 124.763C151.625 124.824 151.596 124.88 151.55 124.92C150.704 125.558 149.717 125.982 148.673 126.156C147.628 126.33 146.557 126.249 145.55 125.92L145.48 125.89Z" fill="#263238"/>
<path d="M156.409 114.32C156.349 114.266 156.298 114.202 156.259 114.13C156.053 113.588 155.72 113.103 155.289 112.716C154.858 112.328 154.34 112.048 153.779 111.9C153.659 111.879 153.551 111.811 153.481 111.711C153.411 111.61 153.383 111.486 153.404 111.365C153.426 111.245 153.494 111.137 153.594 111.067C153.695 110.997 153.819 110.969 153.939 110.99C154.653 111.167 155.313 111.511 155.867 111.995C156.42 112.478 156.849 113.087 157.119 113.77C157.155 113.864 157.159 113.967 157.132 114.064C157.104 114.16 157.047 114.246 156.967 114.307C156.888 114.369 156.791 114.403 156.691 114.406C156.59 114.408 156.492 114.378 156.409 114.32V114.32Z" fill="#263238"/>
<path d="M141.39 110.77L141.33 110.71C141.244 110.624 141.195 110.507 141.195 110.385C141.195 110.263 141.244 110.146 141.33 110.06C141.858 109.565 142.495 109.201 143.19 108.997C143.885 108.794 144.618 108.757 145.33 108.89C145.389 108.905 145.445 108.932 145.494 108.969C145.543 109.006 145.584 109.053 145.615 109.106C145.646 109.159 145.665 109.218 145.673 109.278C145.681 109.339 145.676 109.401 145.66 109.46C145.629 109.578 145.553 109.679 145.448 109.741C145.343 109.803 145.218 109.821 145.1 109.79C144.529 109.683 143.941 109.713 143.385 109.878C142.828 110.043 142.319 110.339 141.9 110.74C141.827 110.795 141.74 110.827 141.649 110.833C141.559 110.838 141.468 110.816 141.39 110.77Z" fill="#263238"/>
<path d="M172.71 153.86C175.62 157.71 178.34 161.59 180.98 165.62C182.29 167.62 183.59 169.62 184.82 171.78C186.145 173.965 187.334 176.229 188.38 178.56C188.697 179.287 188.971 180.032 189.2 180.79C189.367 181.376 189.48 181.975 189.54 182.58C189.557 182.823 189.557 183.067 189.54 183.31V183.76C189.522 183.959 189.492 184.156 189.45 184.35L189.38 184.66V184.8V184.91L189.3 185.13C188.83 186.33 188.46 187.54 187.9 188.7C186.886 191.078 185.668 193.363 184.26 195.53C182.81 197.718 181.112 199.732 179.2 201.53C178.226 202.444 177.179 203.277 176.07 204.02C175.5 204.39 174.92 204.75 174.32 205.08L173.37 205.54C173.01 205.7 172.75 205.81 172.23 206L170.33 201.44C170.465 201.308 170.609 201.184 170.76 201.07L171.31 200.59C171.68 200.26 172.04 199.9 172.39 199.53C173.103 198.766 173.77 197.961 174.39 197.12C175.612 195.403 176.676 193.579 177.57 191.67C177.99 190.67 178.45 189.73 178.8 188.67C179.15 187.61 179.54 186.67 179.86 185.67C180.18 184.67 180.43 183.57 180.74 182.53V182.34V182.24V182.33V182.53C180.74 182.65 180.69 182.83 180.68 182.9C180.675 182.977 180.675 183.054 180.68 183.13V183.42C180.68 183.65 180.68 183.58 180.68 183.48C180.68 183.38 180.4 182.84 180.19 182.42C179.28 180.71 178.06 178.74 176.81 176.86C175.56 174.98 174.26 173.05 172.93 171.16C170.28 167.37 167.55 163.54 164.87 159.78L172.71 153.86Z" fill="#B55B52"/>
<path d="M174.88 204.82L167.17 210.27L163.71 202.39C163.71 202.39 168.39 199.88 172.08 201.56L174.88 204.82Z" fill="#B55B52"/>
<path d="M161.8 210.92L159.87 208.23C159.503 207.711 159.354 207.07 159.453 206.443C159.552 205.815 159.891 205.251 160.4 204.87L163.71 202.39L167.17 210.27L165.05 211.58C164.525 211.902 163.898 212.013 163.295 211.891C162.691 211.768 162.157 211.421 161.8 210.92V210.92Z" fill="#B55B52"/>
<path d="M157.28 151.48C154.66 161.89 170.82 179.71 170.82 179.71L184.41 165.6C184.41 165.6 178.2 152.34 170.09 148.18C164.43 145.28 158.44 146.89 157.28 151.48Z" fill="#407BFF"/>
<path d="M151.37 116.32L149.67 115.32C149.67 115.32 150.24 117 151.37 116.32Z" fill="#263238"/>
<path d="M133.999 179.29C133.926 179.29 133.855 179.268 133.794 179.227C133.734 179.186 133.687 179.128 133.659 179.06C133.627 178.971 133.631 178.873 133.67 178.787C133.709 178.701 133.781 178.634 133.869 178.6L135.429 178C136.891 177.461 138.152 176.488 139.046 175.212C139.939 173.936 140.422 172.418 140.429 170.86L140.539 156.24C140.571 155.127 140.219 154.037 139.544 153.152C138.868 152.267 137.908 151.641 136.826 151.379C135.744 151.117 134.605 151.234 133.599 151.711C132.593 152.188 131.781 152.996 131.299 154L124.539 167C123.813 168.373 123.52 169.933 123.698 171.475C123.877 173.018 124.519 174.47 125.539 175.64L126.639 176.89C126.676 176.925 126.706 176.966 126.726 177.013C126.745 177.059 126.755 177.109 126.754 177.16C126.754 177.21 126.742 177.26 126.721 177.306C126.7 177.352 126.669 177.393 126.631 177.426C126.593 177.459 126.548 177.484 126.5 177.498C126.451 177.513 126.401 177.518 126.35 177.511C126.3 177.505 126.252 177.489 126.209 177.463C126.166 177.436 126.128 177.402 126.099 177.36L124.999 176C123.873 174.728 123.161 173.143 122.96 171.457C122.758 169.77 123.075 168.062 123.869 166.56L130.629 153.56C131.207 152.451 132.142 151.568 133.282 151.054C134.423 150.541 135.703 150.426 136.917 150.728C138.131 151.031 139.207 151.733 139.973 152.722C140.739 153.711 141.15 154.929 141.139 156.18L141.029 170.8C141.021 172.496 140.499 174.15 139.531 175.542C138.563 176.935 137.196 178.001 135.609 178.6L134.049 179.19L133.999 179.29Z" fill="#263238"/>
<path d="M140.79 159.5C140.697 159.498 140.608 159.46 140.541 159.395C140.474 159.331 140.435 159.243 140.43 159.15C140.288 157.995 139.799 156.909 139.028 156.037C138.257 155.165 137.24 154.547 136.111 154.264C134.981 153.981 133.793 154.048 132.702 154.454C131.611 154.86 130.669 155.588 130 156.54C129.977 156.581 129.946 156.618 129.909 156.647C129.872 156.677 129.829 156.699 129.784 156.712C129.738 156.725 129.69 156.728 129.643 156.723C129.596 156.718 129.551 156.703 129.51 156.68C129.468 156.657 129.432 156.626 129.402 156.589C129.373 156.552 129.351 156.51 129.338 156.464C129.325 156.419 129.321 156.371 129.327 156.324C129.332 156.277 129.347 156.231 129.37 156.19C130.114 155.09 131.178 154.246 132.418 153.77C133.657 153.295 135.013 153.212 136.302 153.533C137.59 153.854 138.749 154.563 139.622 155.564C140.494 156.565 141.038 157.81 141.18 159.13C141.18 159.225 141.143 159.316 141.078 159.385C141.013 159.454 140.924 159.495 140.83 159.5H140.79Z" fill="#263238"/>
<path d="M136.89 151.51C136.831 151.509 136.772 151.495 136.72 151.467C136.668 151.439 136.623 151.399 136.59 151.35C136.407 150.945 136.312 150.505 136.312 150.06C136.312 149.615 136.407 149.176 136.59 148.77C136.849 147.964 137.287 147.226 137.87 146.611C138.454 145.997 139.168 145.521 139.96 145.22C140.004 145.203 140.051 145.195 140.098 145.197C140.145 145.199 140.191 145.211 140.233 145.231C140.275 145.252 140.313 145.281 140.343 145.317C140.374 145.353 140.396 145.395 140.41 145.44C140.439 145.529 140.432 145.626 140.391 145.71C140.35 145.794 140.278 145.858 140.19 145.89C139.511 146.168 138.902 146.59 138.403 147.127C137.904 147.664 137.527 148.303 137.3 149C137.151 149.31 137.064 149.646 137.045 149.989C137.026 150.332 137.075 150.676 137.19 151C137.216 151.04 137.233 151.085 137.242 151.132C137.25 151.179 137.249 151.227 137.239 151.273C137.229 151.32 137.21 151.364 137.182 151.403C137.155 151.442 137.12 151.475 137.08 151.5C137.018 151.518 136.953 151.522 136.89 151.51Z" fill="#263238"/>
<path d="M133.179 178.74C133.009 179.39 133.179 180.01 133.659 180.12C134.139 180.23 134.579 179.78 134.739 179.12C134.899 178.46 134.679 177.84 134.249 177.74C133.819 177.64 133.339 178.08 133.179 178.74Z" fill="#263238"/>
<path d="M161.56 161.47C161.88 162.98 162.96 164.02 163.95 163.81C164.94 163.6 165.48 162.19 165.15 160.69C164.82 159.19 163.75 158.13 162.76 158.35C161.77 158.57 161.23 160 161.56 161.47Z" fill="#263238"/>
<path d="M164.689 161C164.643 161.002 164.598 160.994 164.555 160.978C164.512 160.961 164.472 160.937 164.439 160.905C164.406 160.873 164.379 160.836 164.36 160.794C164.341 160.752 164.331 160.706 164.329 160.66C164.119 155.13 162.019 148.26 157.929 146.23C157.845 146.187 157.781 146.113 157.751 146.023C157.721 145.933 157.728 145.835 157.769 145.75C157.79 145.708 157.818 145.669 157.854 145.638C157.889 145.607 157.93 145.583 157.975 145.568C158.02 145.553 158.068 145.547 158.115 145.551C158.162 145.555 158.208 145.568 158.249 145.59C162.629 147.76 164.819 154.71 165.039 160.59C165.044 160.637 165.038 160.685 165.023 160.73C165.008 160.774 164.983 160.816 164.951 160.85C164.919 160.885 164.88 160.913 164.837 160.932C164.794 160.951 164.747 160.961 164.699 160.96L164.689 161Z" fill="#263238"/>
<path d="M160.49 161.6C160.7 162.89 161.63 163.81 162.57 163.66C163.51 163.51 164.11 162.34 163.9 161.04C163.69 159.74 162.75 158.83 161.81 158.98C160.87 159.13 160.28 160.3 160.49 161.6Z" fill="white"/>
<path d="M160.41 161.71C160.71 163.31 161.55 164.49 162.28 164.35C163.01 164.21 163.34 162.81 163.04 161.21C162.74 159.61 161.9 158.43 161.17 158.57C160.44 158.71 160.1 160.11 160.41 161.71Z" fill="#263238"/>
<path d="M125.62 176.85C125.46 177.51 125.68 178.13 126.11 178.23C126.54 178.33 127.02 177.9 127.19 177.23C127.36 176.56 127.13 175.96 126.7 175.85C126.27 175.74 125.79 176.2 125.62 176.85Z" fill="#263238"/>
<path d="M235.16 95.42C228.83 96.55 228.03 95.97 227.95 91.42C227.87 86.87 225.57 79.28 228.77 76.9C228.989 76.6918 229.26 76.5447 229.554 76.4736C229.848 76.4025 230.156 76.4099 230.446 76.4949C230.737 76.5799 231 76.7396 231.209 76.9581C231.419 77.1766 231.567 77.4462 231.64 77.74C231.835 77.2409 232.215 76.8365 232.702 76.6111C233.188 76.3856 233.743 76.3566 234.25 76.53C234.38 75.59 234.53 73.18 236.25 72.53C237.97 71.88 239.55 73.44 239.55 73.44C239.55 73.44 239.42 69.73 241.92 70.09C242.666 70.2093 243.359 70.5508 243.909 71.0699C244.458 71.589 244.838 72.2616 245 73C245 73 246.44 70.9 248.39 71.73C250.34 72.56 249.93 75 249.93 75C249.93 75 252 74 253.54 75.13C255.08 76.26 253.96 78.07 253.96 78.07C253.96 78.07 255.36 74.47 258.03 76.46C260.43 78.26 258.25 81.08 258.25 81.08C258.25 81.08 260.89 80.65 261.53 81.98C263.69 86.51 255.46 91.57 255.19 99.22C242.55 104 235.16 95.42 235.16 95.42Z" fill="#263238"/>
<path d="M189.54 217L185.32 216.22L179.74 221.55C179.436 221.839 179.196 222.189 179.036 222.577C178.876 222.964 178.799 223.381 178.81 223.8L178.89 228.16C178.899 228.906 179.187 229.621 179.695 230.166C180.203 230.712 180.897 231.048 181.64 231.11L183.58 231.28C184.285 231.347 184.992 231.162 185.574 230.757C186.156 230.352 186.576 229.755 186.76 229.07L187.76 225.51C187.76 225.51 193.27 219 189.54 217Z" fill="#FFB573"/>
<path d="M232.16 137.26C229.33 144.59 226.51 151.95 223.79 159.33C221.07 166.71 218.37 174.12 215.84 181.41L215.39 182.76L215.08 183.64C214.96 183.97 214.84 184.31 214.73 184.57C214.26 185.76 213.79 186.74 213.32 187.73C212.38 189.73 211.43 191.52 210.47 193.33C208.54 196.93 206.55 200.4 204.54 203.86C200.54 210.79 196.54 217.56 192.4 224.43L179.67 216.51C183.87 209.98 187.92 203.24 191.8 196.51C193.71 193.13 195.59 189.74 197.34 186.38C198.21 184.7 199.05 183.02 199.79 181.38C200.14 180.59 200.49 179.78 200.72 179.12C200.8 178.93 200.83 178.8 200.88 178.67L201.04 178.15L201.5 176.69C203.91 169.01 206.44 161.59 208.88 154.06L216.2 131.55L232.16 137.26Z" fill="#407BFF"/>
<path opacity="0.6" d="M232.16 137.26C229.33 144.59 226.51 151.95 223.79 159.33C221.07 166.71 218.37 174.12 215.84 181.41L215.39 182.76L215.08 183.64C214.96 183.97 214.84 184.31 214.73 184.57C214.26 185.76 213.79 186.74 213.32 187.73C212.38 189.73 211.43 191.52 210.47 193.33C208.54 196.93 206.55 200.4 204.54 203.86C200.54 210.79 196.54 217.56 192.4 224.43L179.67 216.51C183.87 209.98 187.92 203.24 191.8 196.51C193.71 193.13 195.59 189.74 197.34 186.38C198.21 184.7 199.05 183.02 199.79 181.38C200.14 180.59 200.49 179.78 200.72 179.12C200.8 178.93 200.83 178.8 200.88 178.67L201.04 178.15L201.5 176.69C203.91 169.01 206.44 161.59 208.88 154.06L216.2 131.55L232.16 137.26Z" fill="white"/>
<path d="M194.02 404.91L185.05 405.35L189.29 381.99L197.82 383.95L194.02 404.91Z" fill="#FFB573"/>
<path d="M258.369 405.25H249.399L249.429 384.48H258.389L258.369 405.25Z" fill="#FFB573"/>
<path d="M248.549 404.21H259.479C259.655 404.207 259.826 404.267 259.962 404.379C260.097 404.491 260.189 404.647 260.219 404.82L261.659 412.82C261.691 413.018 261.68 413.22 261.626 413.413C261.571 413.606 261.476 413.785 261.345 413.938C261.215 414.09 261.053 414.212 260.871 414.295C260.688 414.379 260.49 414.421 260.289 414.42C256.769 414.36 254.209 414.15 249.779 414.15C247.059 414.15 238.779 414.43 235.059 414.43C231.339 414.43 230.959 410.71 232.509 410.37C239.509 408.86 244.779 406.78 247.069 404.79C247.475 404.422 248.002 404.216 248.549 404.21V404.21Z" fill="#263238"/>
<path opacity="0.2" d="M189.289 382L187.329 392.8L195.859 394.76L197.819 383.96L189.289 382Z" fill="black"/>
<path opacity="0.2" d="M258.39 384.48H249.42V395.18H258.39V384.48Z" fill="black"/>
<path d="M265.609 137C258.609 168.49 260.469 199.57 259.719 206.3L211.849 203.14C206.849 165.14 212.429 140.9 215.599 130.96C216.115 129.32 217.089 127.861 218.408 126.757C219.726 125.653 221.333 124.949 223.039 124.73C230.158 123.95 237.326 123.726 244.479 124.06C249.322 124.35 254.129 125.08 258.839 126.24C261.162 126.772 263.18 128.203 264.449 130.221C265.718 132.238 266.135 134.676 265.609 137V137Z" fill="#407BFF"/>
<path d="M251.179 102.72C249.599 108.65 247.729 119.15 250.739 124.46C251.209 125.29 250.309 126 250.269 126.96C250.159 129.9 246.179 130.78 239.059 130.82C231.939 130.86 228.889 127.89 230.829 125.09C231.127 124.663 231.579 124.369 232.089 124.27C238.759 122.78 238.889 117.55 237.979 112.56L251.179 102.72Z" fill="#FFB573"/>
<path opacity="0.4" d="M238.55 129.19C240.42 131.791 241.606 134.821 242 138C249.11 134.66 252.5 126.55 252.5 126.55L250.36 124.26C250.36 124.26 242.46 125.75 238.55 129.19Z" fill="black"/>
<path opacity="0.4" d="M237.849 129.22C235.232 131.351 233.022 133.94 231.329 136.86C226.359 133.78 227.999 125 227.999 125L232.049 124.2C232.049 124.2 233.859 125.87 237.849 129.22Z" fill="black"/>
<path d="M238.169 129L236.639 129.15L234.049 130.86C233.884 131.89 234.067 132.946 234.569 133.86C236.074 134.154 237.609 134.258 239.139 134.17C240.166 133.674 240.984 132.831 241.449 131.79L239.549 129.36L238.169 129Z" fill="#263238"/>
<path d="M238.17 129C240.091 131.405 241.564 134.135 242.52 137.06C249.63 133.72 253.77 125.74 253.77 125.74L250.34 122.74C250.34 122.74 242.08 125.58 238.17 129Z" fill="#407BFF"/>
<path d="M238.17 129C235.426 130.731 233.025 132.955 231.09 135.56C226.09 132.49 228 124.22 228 124.22L232.05 123.42C232.05 123.42 234.19 125.67 238.17 129Z" fill="#407BFF"/>
<path opacity="0.2" d="M245.8 106.73L238 112.55C238.236 113.753 238.367 114.974 238.39 116.2C241.2 115.99 245.24 113.2 245.73 110.28C245.965 109.11 245.989 107.908 245.8 106.73V106.73Z" fill="black"/>
<path d="M252.609 92.9202C251.479 101.75 251.269 106.92 246.489 111.23C239.299 117.62 228.629 112.84 227.099 103.85C225.719 95.7602 227.799 82.6802 236.709 79.7302C238.671 79.069 240.769 78.9203 242.805 79.2985C244.84 79.6767 246.745 80.569 248.338 81.8907C249.931 83.2124 251.16 84.9196 251.908 86.8501C252.655 88.7805 252.897 90.8701 252.609 92.9202V92.9202Z" fill="#FFB573"/>
<path d="M250.449 100.9C248.449 98.9702 249.699 89.7302 250.709 87.0802C245.709 87.5602 229.549 87.5402 230.159 83.0802C230.769 78.6202 236.649 74.8302 246.259 77.9602C254.259 80.5702 256.259 84.5602 256.259 87.8202C256.379 94.5202 250.449 100.9 250.449 100.9Z" fill="#263238"/>
<path d="M255.709 101C254.759 102.815 253.137 104.186 251.189 104.82C248.639 105.61 247.379 103.26 248.099 100.74C248.739 98.48 250.849 95.33 253.399 95.65C255.949 95.97 256.879 98.75 255.709 101Z" fill="#FFB573"/>
<path d="M184.409 390.06L199.239 393.33C199.239 393.33 213.659 336.82 217.939 309.2C219.249 300.8 222.289 288.81 225.059 276.2C228.549 260.3 232.939 243.1 236.539 229.63C240.339 215.44 243.159 205.24 243.159 205.24L211.849 203.17C211.849 203.17 197.279 277.08 194.339 304.29C191.269 332.57 184.409 390.06 184.409 390.06Z" fill="#263238"/>
<path opacity="0.2" d="M225.059 276.18C228.549 260.28 232.939 243.08 236.539 229.61L233.249 222.61C225.479 231.89 223.489 260.6 225.059 276.18Z" fill="black"/>
<path d="M226.77 204.13C226.77 204.13 233.25 279.66 235.77 305.81C238.57 334.45 246.08 393.12 246.08 393.12H261.14C261.14 393.12 261.82 330.64 259.14 302.98C258.76 248.6 259.71 206.31 259.71 206.31L226.77 204.13Z" fill="#263238"/>
<path d="M244.159 393.47H263.499V387.69L243.409 386.58L244.159 393.47Z" fill="#407BFF"/>
<path d="M182.47 390L200.14 393.9L201.4 388.19L182.9 383.53L182.47 390Z" fill="#407BFF"/>
<path d="M239.699 94.4998C239.699 95.2198 239.229 95.7798 238.759 95.7498C238.289 95.7198 237.939 95.1098 237.989 94.3898C238.039 93.6698 238.459 93.1098 238.929 93.1398C239.399 93.1698 239.749 93.7798 239.699 94.4998Z" fill="#263238"/>
<path d="M231.54 93.9998C231.54 94.7198 231.07 95.2798 230.6 95.2498C230.13 95.2198 229.78 94.6098 229.83 93.8898C229.88 93.1698 230.3 92.6098 230.77 92.6398C231.24 92.6698 231.59 93.2398 231.54 93.9998Z" fill="#263238"/>
<path d="M233.41 94.5C232.401 96.6453 231.106 98.6436 229.56 100.44C230.75 101.72 232.96 101.32 232.96 101.32L233.41 94.5Z" fill="#ED893E"/>
<path d="M235.88 103.45C236.69 103.404 237.483 103.195 238.21 102.834C238.937 102.473 239.583 101.968 240.11 101.35C240.147 101.311 240.168 101.259 240.168 101.205C240.168 101.151 240.147 101.099 240.11 101.06C240.069 101.022 240.015 101.001 239.96 101.001C239.904 101.001 239.851 101.022 239.81 101.06C239.216 101.738 238.471 102.266 237.636 102.603C236.8 102.94 235.897 103.076 235 103C234.972 102.997 234.944 103 234.918 103.008C234.891 103.016 234.867 103.029 234.845 103.047C234.824 103.065 234.806 103.086 234.793 103.111C234.78 103.136 234.772 103.162 234.77 103.19C234.767 103.247 234.786 103.302 234.824 103.345C234.861 103.388 234.913 103.415 234.97 103.42C235.272 103.448 235.576 103.458 235.88 103.45V103.45Z" fill="#263238"/>
<path d="M241.689 91.9998C241.76 91.9917 241.828 91.9678 241.889 91.9298C241.984 91.8684 242.051 91.7719 242.075 91.6615C242.099 91.5511 242.079 91.4355 242.019 91.3398C241.662 90.7645 241.173 90.2828 240.592 89.9349C240.011 89.587 239.355 89.383 238.679 89.3398C238.578 89.3555 238.485 89.4069 238.418 89.4849C238.351 89.5628 238.314 89.6621 238.314 89.7648C238.314 89.8676 238.351 89.9669 238.418 90.0448C238.485 90.1228 238.578 90.1742 238.679 90.1898C239.213 90.2293 239.73 90.3949 240.187 90.673C240.644 90.9512 241.029 91.334 241.309 91.7898C241.346 91.8569 241.402 91.9121 241.469 91.9493C241.536 91.9864 241.612 92.0039 241.689 91.9998V91.9998Z" fill="#263238"/>
<path d="M227.51 90.9299C227.579 90.9251 227.646 90.9034 227.706 90.8668C227.765 90.8302 227.814 90.7798 227.85 90.7199C228.105 90.2552 228.466 89.8573 228.904 89.5584C229.342 89.2596 229.844 89.0682 230.37 88.9999C230.481 88.9898 230.584 88.9376 230.659 88.8541C230.733 88.7705 230.773 88.6617 230.77 88.5499C230.762 88.4376 230.711 88.3328 230.626 88.258C230.542 88.1832 230.432 88.1444 230.32 88.1499C229.648 88.2311 229.006 88.4723 228.448 88.8535C227.889 89.2346 227.43 89.7444 227.11 90.3399C227.056 90.4368 227.042 90.5511 227.072 90.6579C227.102 90.7647 227.173 90.8553 227.27 90.9099C227.345 90.944 227.43 90.951 227.51 90.9299Z" fill="#263238"/>
<path d="M245.519 405.77C246.315 405.751 247.107 405.644 247.879 405.45C247.92 405.441 247.957 405.419 247.985 405.389C248.014 405.359 248.033 405.321 248.039 405.28C248.05 405.241 248.048 405.2 248.034 405.162C248.019 405.124 247.993 405.092 247.959 405.07C247.639 404.86 244.819 403.07 243.799 403.59C243.689 403.648 243.596 403.734 243.529 403.839C243.462 403.944 243.424 404.065 243.419 404.19C243.384 404.396 243.401 404.607 243.469 404.805C243.537 405.003 243.654 405.18 243.809 405.32C244.31 405.663 244.915 405.822 245.519 405.77V405.77ZM247.269 405.15C245.739 405.46 244.569 405.4 244.099 404.99C243.993 404.895 243.913 404.774 243.867 404.639C243.822 404.504 243.812 404.36 243.839 404.22C243.839 404.06 243.919 404 243.979 403.97C244.509 403.71 246.129 404.47 247.269 405.15Z" fill="#407BFF"/>
<path d="M247.829 405.46C247.865 405.474 247.904 405.474 247.939 405.46C247.974 405.442 248.002 405.414 248.021 405.381C248.041 405.347 248.05 405.309 248.049 405.27C248.049 405.16 247.939 402.57 246.929 401.72C246.808 401.613 246.664 401.534 246.509 401.487C246.354 401.441 246.19 401.428 246.029 401.45V401.45C245.869 401.45 245.714 401.505 245.589 401.605C245.463 401.705 245.376 401.844 245.339 402C245.109 403 246.819 405 247.729 405.47C247.763 405.477 247.798 405.473 247.829 405.46V405.46ZM246.169 401.82C246.347 401.822 246.518 401.89 246.649 402.01C247.289 402.55 247.519 404.06 247.589 404.82C246.699 404.12 245.589 402.63 245.749 402.04C245.749 401.99 245.749 401.86 246.069 401.83H246.169V401.82Z" fill="#407BFF"/>
<path d="M183.71 401.4L194.23 404.4C194.397 404.448 194.543 404.553 194.642 404.698C194.74 404.842 194.786 405.016 194.77 405.19L193.99 413.26C193.964 413.458 193.896 413.649 193.79 413.819C193.684 413.989 193.543 414.134 193.376 414.244C193.209 414.354 193.02 414.427 192.822 414.457C192.624 414.487 192.422 414.475 192.23 414.42C188.86 413.42 186.46 412.51 182.23 411.3C179.61 410.56 171.08 407.5 167.97 405.38C164.86 403.26 166.69 399.99 168.16 400.59C174.77 403.27 179.42 402.84 182.16 401.59C182.637 401.345 183.187 401.278 183.71 401.4V401.4Z" fill="#263238"/>
<path d="M180.359 402.08C181.132 402.272 181.923 402.383 182.719 402.41C182.762 402.413 182.805 402.403 182.842 402.382C182.879 402.36 182.91 402.328 182.929 402.29C182.953 402.256 182.965 402.216 182.965 402.175C182.965 402.134 182.953 402.094 182.929 402.06C182.679 401.78 180.449 399.3 179.339 399.51C179.216 399.537 179.101 399.596 179.007 399.68C178.912 399.764 178.841 399.871 178.799 399.99C178.712 400.177 178.674 400.383 178.686 400.589C178.698 400.795 178.761 400.995 178.869 401.17C179.25 401.631 179.775 401.952 180.359 402.08V402.08ZM182.219 401.96C180.659 401.84 179.549 401.46 179.219 400.96C179.152 400.836 179.116 400.697 179.116 400.555C179.116 400.414 179.152 400.274 179.219 400.15C179.279 399.99 179.359 399.96 179.429 399.95C179.999 399.82 181.299 401 182.219 402V401.96Z" fill="#407BFF"/>
<path d="M182.67 402.4C182.709 402.41 182.751 402.41 182.79 402.4C182.829 402.39 182.864 402.37 182.892 402.342C182.92 402.314 182.94 402.279 182.95 402.24C182.95 402.14 183.57 399.62 182.84 398.52C182.751 398.386 182.634 398.272 182.498 398.186C182.362 398.1 182.209 398.043 182.05 398.02V398.02C181.895 397.977 181.73 397.987 181.581 398.049C181.433 398.11 181.309 398.22 181.23 398.36C180.73 399.26 181.85 401.62 182.58 402.36C182.606 402.381 182.637 402.394 182.67 402.4V402.4ZM182.06 398.45C182.231 398.498 182.378 398.608 182.47 398.76C182.95 399.46 182.75 400.98 182.62 401.76C181.95 400.85 181.31 399.12 181.62 398.59C181.62 398.54 181.71 398.43 181.99 398.47L182.06 398.45Z" fill="#407BFF"/>
<path d="M251.33 123.68C251.224 123.663 251.115 123.67 251.012 123.701C250.909 123.733 250.814 123.787 250.735 123.86C250.656 123.933 250.595 124.024 250.556 124.124C250.517 124.225 250.501 124.333 250.51 124.44C250.86 129.8 242.51 139.44 240.51 168.31C239.32 185.87 238.23 240.62 239.03 269.1C239.042 269.474 239.138 269.84 239.313 270.17C239.487 270.501 239.735 270.788 240.036 271.009C240.338 271.229 240.686 271.378 241.054 271.444C241.422 271.511 241.8 271.492 242.16 271.39C256.92 267.27 263.89 277.26 266.73 265.48C266.58 251.37 262.31 200.71 263.41 188.7C264.51 176.69 269.08 144.06 270.22 135.36C271.23 127.8 255.46 124.43 251.33 123.68Z" fill="#407BFF"/>
<path opacity="0.7" d="M251.33 123.68C251.224 123.663 251.115 123.67 251.012 123.701C250.909 123.733 250.814 123.787 250.735 123.86C250.656 123.933 250.595 124.024 250.556 124.124C250.517 124.225 250.501 124.333 250.51 124.44C250.86 129.8 242.51 139.44 240.51 168.31C239.32 185.87 238.23 240.62 239.03 269.1C239.042 269.474 239.138 269.84 239.313 270.17C239.487 270.501 239.735 270.788 240.036 271.009C240.338 271.229 240.686 271.378 241.054 271.444C241.422 271.511 241.8 271.492 242.16 271.39C256.92 267.27 263.89 277.26 266.73 265.48C266.58 251.37 262.31 200.71 263.41 188.7C264.51 176.69 269.08 144.06 270.22 135.36C271.23 127.8 255.46 124.43 251.33 123.68Z" fill="white"/>
<path opacity="0.2" d="M261.059 148.15C260.409 152.61 260.159 170.63 264.449 179.3C265.169 173.3 266.109 166.17 267.019 159.3L261.059 148.15Z" fill="#407BFF"/>
<path d="M267.189 226.08L262.929 226.58L259.159 233.31C258.953 233.674 258.825 234.078 258.783 234.495C258.742 234.911 258.788 235.332 258.919 235.73L260.279 239.87C260.51 240.579 260.996 241.176 261.643 241.546C262.29 241.915 263.052 242.031 263.779 241.87L265.679 241.47C266.378 241.328 267.003 240.942 267.442 240.382C267.882 239.821 268.108 239.122 268.079 238.41L267.959 234.73C267.959 234.73 271.339 226.92 267.189 226.08Z" fill="#FFB573"/>
<path d="M269.53 132C270.89 136 272.15 139.95 273.4 143.95C274.65 147.95 275.9 151.95 277.08 155.95C278.26 159.95 279.4 164.04 280.45 168.21C280.97 170.3 281.45 172.41 281.91 174.62C282.12 175.73 282.33 176.86 282.5 178.06C282.58 178.68 282.67 179.25 282.72 179.94L282.81 180.94L282.86 182.07C282.88 182.45 282.88 182.83 282.86 183.21C282.86 183.61 282.86 183.99 282.81 184.3L282.72 185.3L282.61 186.2C282.47 187.41 282.29 188.51 282.11 189.61C281.75 191.79 281.33 193.89 280.9 195.97C280.04 200.13 279.08 204.2 278.11 208.25C277.14 212.3 276.11 216.34 275.11 220.37L272.11 232.46L257.63 228.53C259.87 220.72 261.91 212.77 263.8 204.87C264.72 200.87 265.58 196.95 266.35 193.04C266.73 191.04 267.09 189.14 267.35 187.26C267.5 186.32 267.62 185.39 267.7 184.55C267.777 183.886 267.804 183.218 267.78 182.55V182.13L267.71 181.59C267.71 181.25 267.59 180.8 267.53 180.41C267.39 179.57 267.21 178.68 267.01 177.77C266.6 175.95 266.11 174.07 265.58 172.18C264.58 168.39 263.31 164.55 262.02 160.73C259.47 153.09 256.6 145.4 253.64 137.92L269.53 132Z" fill="#407BFF"/>
<path opacity="0.7" d="M269.53 132C270.89 136 272.15 139.95 273.4 143.95C274.65 147.95 275.9 151.95 277.08 155.95C278.26 159.95 279.4 164.04 280.45 168.21C280.97 170.3 281.45 172.41 281.91 174.62C282.12 175.73 282.33 176.86 282.5 178.06C282.58 178.68 282.67 179.25 282.72 179.94L282.81 180.94L282.86 182.07C282.88 182.45 282.88 182.83 282.86 183.21C282.86 183.61 282.86 183.99 282.81 184.3L282.72 185.3L282.61 186.2C282.47 187.41 282.29 188.51 282.11 189.61C281.75 191.79 281.33 193.89 280.9 195.97C280.04 200.13 279.08 204.2 278.11 208.25C277.14 212.3 276.11 216.34 275.11 220.37L272.11 232.46L257.63 228.53C259.87 220.72 261.91 212.77 263.8 204.87C264.72 200.87 265.58 196.95 266.35 193.04C266.73 191.04 267.09 189.14 267.35 187.26C267.5 186.32 267.62 185.39 267.7 184.55C267.777 183.886 267.804 183.218 267.78 182.55V182.13L267.71 181.59C267.71 181.25 267.59 180.8 267.53 180.41C267.39 179.57 267.21 178.68 267.01 177.77C266.6 175.95 266.11 174.07 265.58 172.18C264.58 168.39 263.31 164.55 262.02 160.73C259.47 153.09 256.6 145.4 253.64 137.92L269.53 132Z" fill="white"/>
<path d="M231.879 122.93C232.099 122.929 232.315 122.989 232.501 123.106C232.688 123.222 232.838 123.389 232.933 123.587C233.028 123.785 233.065 124.006 233.04 124.224C233.015 124.443 232.928 124.649 232.789 124.82C230.409 127.58 228.909 131.37 226.089 143.53C222.689 158.2 215.449 232.01 214.089 268.18C214.083 268.481 214.011 268.776 213.879 269.046C213.747 269.316 213.558 269.555 213.325 269.745C213.092 269.935 212.821 270.072 212.53 270.147C212.239 270.223 211.935 270.234 211.639 270.18C204.579 268.88 199.739 272.3 198.969 267.77C198.119 262.77 201.289 215.01 207.219 192.55C206.289 172.63 209.649 132.67 216.359 127.36C219.999 124.41 227.739 123 231.879 122.93Z" fill="#407BFF"/>
<path opacity="0.7" d="M231.879 122.93C232.099 122.929 232.315 122.989 232.501 123.106C232.688 123.222 232.838 123.389 232.933 123.587C233.028 123.785 233.065 124.006 233.04 124.224C233.015 124.443 232.928 124.649 232.789 124.82C230.409 127.58 228.909 131.37 226.089 143.53C222.689 158.2 215.449 232.01 214.089 268.18C214.083 268.481 214.011 268.776 213.879 269.046C213.747 269.316 213.558 269.555 213.325 269.745C213.092 269.935 212.821 270.072 212.53 270.147C212.239 270.223 211.935 270.234 211.639 270.18C204.579 268.88 199.739 272.3 198.969 267.77C198.119 262.77 201.289 215.01 207.219 192.55C206.289 172.63 209.649 132.67 216.359 127.36C219.999 124.41 227.739 123 231.879 122.93Z" fill="white"/>
<path d="M235.77 132.84C235.77 132.84 227.13 157.11 224.09 177.45C223.85 182.98 226.48 193.69 228.61 198.36C233.06 188.67 235.84 182.96 236.28 177.45C236.99 169.16 238.16 133 238.16 133L235.77 132.84Z" fill="#263238"/>
<path d="M253.849 161.71C253.762 161.707 253.678 161.676 253.61 161.62C253.542 161.565 253.494 161.489 253.474 161.404C253.453 161.319 253.461 161.229 253.496 161.149C253.532 161.069 253.593 161.002 253.669 160.96L255.309 160.1C256.84 159.313 258.095 158.077 258.906 156.559C259.717 155.04 260.046 153.31 259.849 151.6L258.069 135.48C257.938 134.278 257.406 133.156 256.559 132.294C255.712 131.431 254.599 130.88 253.4 130.727C252.201 130.575 250.985 130.83 249.949 131.453C248.913 132.076 248.117 133.03 247.689 134.16L241.929 149.31C241.309 150.916 241.192 152.672 241.594 154.346C241.996 156.019 242.898 157.531 244.179 158.68L245.559 159.93C245.632 160.005 245.674 160.105 245.674 160.21C245.674 160.315 245.632 160.415 245.559 160.49C245.484 160.563 245.384 160.604 245.279 160.604C245.175 160.604 245.074 160.563 244.999 160.49L243.619 159.25C242.223 157.989 241.243 156.334 240.809 154.503C240.375 152.673 240.508 150.754 241.189 149L246.999 133.88C247.495 132.588 248.411 131.5 249.598 130.79C250.786 130.081 252.178 129.79 253.551 129.965C254.924 130.14 256.198 130.771 257.169 131.757C258.141 132.742 258.753 134.025 258.909 135.4L260.689 151.51C260.9 153.385 260.534 155.279 259.641 156.941C258.748 158.602 257.369 159.952 255.689 160.81L254.049 161.66C253.99 161.698 253.92 161.716 253.849 161.71V161.71Z" fill="#263238"/>
<path d="M258.809 139C258.714 139.001 258.622 138.967 258.55 138.904C258.478 138.841 258.432 138.755 258.419 138.66C258.187 137.364 257.529 136.182 256.549 135.301C255.569 134.421 254.323 133.893 253.009 133.8C250.789 133.52 247.769 134.22 246.559 137.14C246.542 137.192 246.514 137.24 246.478 137.28C246.441 137.321 246.397 137.353 246.347 137.376C246.298 137.399 246.244 137.411 246.189 137.413C246.135 137.414 246.081 137.404 246.03 137.383C245.979 137.363 245.934 137.332 245.895 137.293C245.857 137.255 245.827 137.208 245.807 137.157C245.788 137.106 245.778 137.052 245.781 136.997C245.783 136.943 245.796 136.889 245.819 136.84C246.496 135.532 247.558 134.464 248.861 133.78C250.165 133.096 251.647 132.829 253.107 133.016C254.568 133.203 255.935 133.834 257.025 134.824C258.115 135.813 258.874 137.114 259.199 138.55C259.214 138.652 259.187 138.756 259.125 138.838C259.063 138.921 258.971 138.975 258.869 138.99L258.809 139Z" fill="#263238"/>
<path d="M253.429 130.73C253.377 130.728 253.326 130.715 253.279 130.692C253.232 130.669 253.19 130.637 253.155 130.598C253.121 130.559 253.094 130.513 253.078 130.464C253.061 130.414 253.055 130.362 253.059 130.31C253.179 128.36 252.899 124.81 251.059 123.89C250.965 123.841 250.894 123.757 250.862 123.655C250.83 123.554 250.84 123.444 250.889 123.35C250.938 123.256 251.023 123.185 251.124 123.153C251.225 123.121 251.335 123.131 251.429 123.18C254.089 124.55 253.849 129.77 253.809 130.36C253.804 130.458 253.762 130.551 253.692 130.62C253.621 130.688 253.527 130.728 253.429 130.73V130.73Z" fill="#263238"/>
<path d="M246.18 160.33C246.08 161.08 245.61 161.63 245.12 161.56C244.63 161.49 244.31 160.85 244.41 160.11C244.51 159.37 244.97 158.81 245.46 158.88C245.95 158.95 246.27 159.59 246.18 160.33Z" fill="#263238"/>
<path d="M222.929 144.12C222.299 145.71 220.929 146.67 219.929 146.26C218.929 145.85 218.539 144.26 219.169 142.63C219.799 141 221.169 140.08 222.169 140.49C223.169 140.9 223.549 142.53 222.929 144.12Z" fill="#263238"/>
<path d="M219.64 143.09H219.56C219.457 143.068 219.366 143.007 219.308 142.919C219.25 142.831 219.229 142.724 219.25 142.62C220.57 136.05 226.03 125.62 230.84 122.62C230.884 122.582 230.935 122.555 230.99 122.539C231.046 122.523 231.104 122.519 231.161 122.527C231.218 122.536 231.272 122.557 231.321 122.588C231.369 122.62 231.41 122.662 231.44 122.71C231.471 122.759 231.491 122.814 231.498 122.871C231.505 122.929 231.5 122.987 231.483 123.042C231.466 123.097 231.437 123.147 231.399 123.19C231.36 123.233 231.313 123.267 231.26 123.29C226.61 126.22 221.32 136.29 220.03 142.76C220.014 142.852 219.966 142.935 219.895 142.996C219.823 143.056 219.733 143.089 219.64 143.09V143.09Z" fill="#263238"/>
<path d="M224.07 144.45C223.61 145.82 222.43 146.67 221.43 146.34C220.43 146.01 219.98 144.62 220.43 143.24C220.88 141.86 222.07 141.02 223.07 141.35C224.07 141.68 224.53 143.07 224.07 144.45Z" fill="white"/>
<path d="M224.14 144.59C223.53 146.28 222.4 147.43 221.63 147.15C220.86 146.87 220.73 145.27 221.35 143.57C221.97 141.87 223.09 140.73 223.86 141.01C224.63 141.29 224.76 142.89 224.14 144.59Z" fill="#263238"/>
<path d="M254.739 161.43C254.649 162.17 254.169 162.72 253.679 162.66C253.189 162.6 252.869 161.94 252.969 161.2C253.069 160.46 253.539 159.91 254.029 159.97C254.519 160.03 254.839 160.68 254.739 161.43Z" fill="#263238"/>
<path d="M311.44 118.1C314.78 127.23 305.9 131.82 300.08 145.27C294.26 158.72 308.3 174.76 329.85 175.11C351.4 175.46 352.08 154.82 348.74 140.01C345.4 125.2 352.38 122.79 350.9 111.48C349 96.6201 327.59 85.3601 319.09 99.0001C311.53 98.2901 308.52 110.12 311.44 118.1Z" fill="#263238"/>
<path d="M375.27 241V239.84C375.25 239.284 375.111 238.738 374.86 238.24L371.24 231.1L367 230.3C364 233.53 367 239.97 367 239.97V241C367.001 241.844 367.276 242.665 367.785 243.338C368.294 244.011 369.009 244.5 369.82 244.73L370.39 244.9C370.977 245.055 371.593 245.071 372.187 244.945C372.781 244.82 373.337 244.557 373.811 244.178C374.286 243.799 374.665 243.314 374.918 242.762C375.171 242.21 375.292 241.607 375.27 241V241Z" fill="#FFC3BD"/>
<path d="M357.3 149.15L358.86 160.09L360.5 171C361.04 174.65 361.61 178.28 362.19 181.92L363.92 192.76L364.13 193.83C364.2 194.18 364.32 194.63 364.41 195.02L364.71 196.25L365.06 197.52C365.51 199.2 366.06 200.94 366.54 202.66C367.54 206.11 368.69 209.6 369.82 213.07C372.12 220 374.52 226.96 377.08 233.8L362.94 238.8L355.86 217.66C354.69 214.13 353.5 210.6 352.37 207C351.81 205.19 351.25 203.4 350.72 201.53L350.31 200.14L349.92 198.69C349.79 198.19 349.65 197.75 349.53 197.2L349.16 195.56L347.07 184.56C346.404 180.933 345.707 177.307 344.98 173.68L342.84 162.8L340.61 152L357.3 149.15Z" fill="#407BFF"/>
<path opacity="0.6" d="M357.3 149.15L358.86 160.09L360.5 171C361.04 174.65 361.61 178.28 362.19 181.92L363.92 192.76L364.13 193.83C364.2 194.18 364.32 194.63 364.41 195.02L364.71 196.25L365.06 197.52C365.51 199.2 366.06 200.94 366.54 202.66C367.54 206.11 368.69 209.6 369.82 213.07C372.12 220 374.52 226.96 377.08 233.8L362.94 238.8L355.86 217.66C354.69 214.13 353.5 210.6 352.37 207C351.81 205.19 351.25 203.4 350.72 201.53L350.31 200.14L349.92 198.69C349.79 198.19 349.65 197.75 349.53 197.2L349.16 195.56L347.07 184.56C346.404 180.933 345.707 177.307 344.98 173.68L342.84 162.8L340.61 152L357.3 149.15Z" fill="white"/>
<path d="M355.05 148.31C355.52 153.64 355.1 166.9 349.75 199.77H312.75C313.34 185.49 313.38 176.39 307.25 149.14C307.111 148.527 307.099 147.893 307.214 147.275C307.33 146.657 307.571 146.07 307.922 145.549C308.273 145.028 308.728 144.584 309.257 144.246C309.787 143.907 310.38 143.681 311 143.58C314.613 142.987 318.255 142.59 321.91 142.39C327.51 141.99 333.131 141.99 338.73 142.39C343.33 142.81 348.32 143.64 351.34 144.19C352.324 144.377 353.219 144.881 353.889 145.625C354.559 146.369 354.967 147.312 355.05 148.31V148.31Z" fill="#263238"/>
<path d="M323.54 123.45C324.6 128.86 325.66 138.78 321.87 142.39C321.87 142.39 326.61 148.15 333.87 148.15C341.13 148.15 338.7 142.39 338.7 142.39C332.7 140.95 332.82 136.47 333.87 132.27L323.54 123.45Z" fill="#FFC3BD"/>
<path opacity="0.2" d="M327.749 127.05L333.859 132.26C333.6 133.243 333.426 134.247 333.339 135.26C331.029 134.93 327.409 132.96 326.909 130.45C326.679 129.26 327.549 127.61 327.749 127.05Z" fill="black"/>
<path d="M317.17 112.83C318.58 121.77 318.99 125.58 323.97 129.76C331.47 136.05 342.14 132.36 343.43 123.18C344.59 114.92 342.08 101.68 332.94 98.95C330.926 98.3375 328.79 98.2498 326.733 98.6952C324.676 99.1407 322.766 100.104 321.187 101.495C319.607 102.885 318.408 104.657 317.705 106.641C317.002 108.624 316.818 110.755 317.17 112.83V112.83Z" fill="#FFC3BD"/>
<path d="M318.66 119.27C323.78 114.2 325.54 107.15 325.06 104.27C329.99 105.64 333.61 103.7 333.39 102.86C336.87 106.26 343.18 108.95 342.47 105.29C341.76 101.63 337.09 94.8802 327.35 97.2902C317.61 99.7002 313.86 109.7 314 113.76C314.14 117.82 318.66 119.27 318.66 119.27Z" fill="#263238"/>
<path d="M330 113.84C330.07 114.58 330.51 115.13 331 115.09C331.49 115.05 331.81 114.41 331.74 113.68C331.67 112.95 331.22 112.39 330.74 112.43C330.26 112.47 330 113.11 330 113.84Z" fill="#263238"/>
<path d="M338.31 113.05C338.38 113.78 338.83 114.34 339.31 114.29C339.79 114.24 340.12 113.62 340.05 112.89C339.98 112.16 339.53 111.6 339.05 111.64C338.57 111.68 338.24 112.32 338.31 113.05Z" fill="#263238"/>
<path d="M338.85 111.7L340.56 111.03C340.56 111.03 339.78 112.49 338.85 111.7Z" fill="#263238"/>
<path d="M335.89 114.61C336.698 116.22 337.724 117.71 338.94 119.04C338.592 119.341 338.183 119.563 337.741 119.691C337.299 119.819 336.834 119.849 336.38 119.78L335.89 114.61Z" fill="#ED847E"/>
<path d="M332.66 123C333.023 123.025 333.387 123.025 333.75 123C333.807 122.992 333.859 122.963 333.894 122.918C333.929 122.874 333.946 122.817 333.94 122.76C333.939 122.732 333.932 122.704 333.92 122.679C333.907 122.654 333.89 122.631 333.868 122.613C333.846 122.596 333.821 122.582 333.794 122.575C333.767 122.567 333.738 122.566 333.71 122.57C332.8 122.675 331.878 122.565 331.019 122.249C330.159 121.933 329.385 121.42 328.76 120.75C328.722 120.715 328.672 120.695 328.62 120.693C328.568 120.691 328.517 120.708 328.476 120.741C328.435 120.773 328.407 120.819 328.397 120.87C328.387 120.921 328.395 120.974 328.42 121.02C328.961 121.614 329.615 122.094 330.342 122.434C331.07 122.774 331.858 122.966 332.66 123V123Z" fill="#263238"/>
<path d="M315.19 120.1C315.858 121.719 317.137 123.009 318.75 123.69C320.89 124.57 322.24 122.69 321.87 120.56C321.54 118.56 320.02 115.79 317.76 115.83C317.268 115.854 316.789 115.999 316.367 116.252C315.944 116.504 315.59 116.857 315.336 117.279C315.082 117.701 314.936 118.18 314.91 118.671C314.885 119.163 314.981 119.654 315.19 120.1V120.1Z" fill="#FFC3BD"/>
<path d="M327.15 110C327.236 110.031 327.329 110.034 327.417 110.008C327.505 109.983 327.583 109.932 327.64 109.86C328.9 108.31 331.47 108.46 331.49 108.46C331.603 108.466 331.715 108.427 331.8 108.353C331.886 108.278 331.94 108.173 331.95 108.06C331.955 108.003 331.949 107.946 331.932 107.892C331.914 107.838 331.886 107.787 331.849 107.744C331.811 107.701 331.765 107.666 331.714 107.642C331.663 107.617 331.607 107.603 331.55 107.6C331.43 107.6 328.5 107.42 326.97 109.32C326.899 109.41 326.865 109.524 326.876 109.637C326.887 109.751 326.942 109.856 327.03 109.93L327.15 110Z" fill="#263238"/>
<path d="M341.32 109.09C341.415 109.096 341.509 109.07 341.587 109.017C341.666 108.963 341.725 108.885 341.754 108.795C341.784 108.705 341.783 108.607 341.752 108.518C341.72 108.428 341.66 108.352 341.58 108.3C341.02 107.905 340.375 107.649 339.696 107.553C339.018 107.458 338.327 107.525 337.68 107.75C337.575 107.796 337.492 107.882 337.449 107.988C337.406 108.095 337.406 108.214 337.45 108.32C337.472 108.373 337.504 108.421 337.545 108.461C337.585 108.502 337.634 108.533 337.687 108.555C337.74 108.576 337.797 108.587 337.854 108.586C337.911 108.585 337.968 108.573 338.02 108.55C338.534 108.379 339.081 108.332 339.617 108.414C340.152 108.496 340.661 108.703 341.1 109.02C341.166 109.062 341.242 109.087 341.32 109.09Z" fill="#263238"/>
<path d="M372.74 406.79L381.95 406.35L379.22 385.55L370.02 386L372.74 406.79Z" fill="#FFC3BD"/>
<g opacity="0.2">
<path opacity="0.2" d="M379.22 385.56L380.63 396.28L371.42 396.72L370.01 386L379.22 385.56Z" fill="black"/>
</g>
<path d="M349.75 199.77C349.75 199.77 361.34 270.02 366.06 297.41C370.98 325.89 382.06 392.92 382.06 392.92L369.88 394.92C369.88 394.92 353.46 327.82 346.88 299.92C339.74 269.47 322.44 228.64 322.62 199.85L349.75 199.77Z" fill="#407BFF"/>
<path opacity="0.2" d="M331.139 221.33C329.399 218.8 326.049 215.25 323.479 212.33C325.809 230.23 332.479 251 338.569 270.56C340.189 255.66 339.269 233.06 331.139 221.33Z" fill="black"/>
<path d="M315.92 405.38H325.04L325.65 384.26H316.52L315.92 405.38Z" fill="#FFC3BD"/>
<path d="M325.47 404H315.22C315.043 403.998 314.871 404.061 314.736 404.177C314.602 404.293 314.514 404.454 314.49 404.63L313.32 412.73C313.299 412.936 313.322 413.144 313.386 413.34C313.45 413.537 313.555 413.718 313.693 413.871C313.832 414.025 314.001 414.148 314.19 414.232C314.379 414.316 314.583 414.36 314.79 414.36C318.36 414.29 320.08 414.08 324.59 414.08C327.36 414.08 333.09 414.37 336.92 414.37C340.75 414.37 340.92 410.59 339.36 410.24C332.21 408.71 329.36 406.59 326.99 404.56C326.564 404.203 326.026 404.005 325.47 404V404Z" fill="#263238"/>
<g opacity="0.2">
<path opacity="0.2" d="M325.64 384.27L325.33 395.16H316.21L316.52 384.27H325.64Z" fill="black"/>
</g>
<path d="M339.34 199.77C339.34 199.77 335.64 270.92 333.14 298.62C330.53 327.44 327.39 392.75 327.39 392.75H315.05C315.05 392.75 312.85 327.69 313.71 299.27C314.64 268.27 307.19 228.56 312.22 199.77H339.34Z" fill="#407BFF"/>
<path d="M313.98 393.19L328.45 393.46L328.67 384.64L313.92 385.56L313.98 393.19Z" fill="#263238"/>
<path d="M328.89 405.63C329.669 405.701 330.449 405.504 331.1 405.07C331.247 404.939 331.359 404.773 331.427 404.589C331.495 404.404 331.516 404.205 331.489 404.01C331.482 403.892 331.446 403.778 331.383 403.679C331.32 403.579 331.233 403.497 331.13 403.44C330.01 402.82 326.369 404.68 325.959 404.9C325.921 404.921 325.89 404.954 325.871 404.993C325.851 405.032 325.844 405.076 325.85 405.12C325.855 405.164 325.875 405.205 325.905 405.238C325.936 405.27 325.976 405.292 326.019 405.3C326.963 405.501 327.925 405.612 328.89 405.63ZM330.519 403.74C330.657 403.736 330.794 403.764 330.92 403.82C330.962 403.842 330.997 403.875 331.022 403.915C331.046 403.956 331.059 404.002 331.059 404.05C331.081 404.177 331.07 404.307 331.026 404.428C330.982 404.549 330.908 404.657 330.809 404.74C330.259 405.24 328.759 405.33 326.739 404.99C327.919 404.36 329.197 403.937 330.519 403.74V403.74Z" fill="#407BFF"/>
<path d="M326.06 405.31H326.15C327.24 404.82 329.39 402.85 329.22 401.82C329.22 401.57 329.01 401.27 328.41 401.21C328.195 401.185 327.977 401.205 327.771 401.269C327.564 401.333 327.373 401.439 327.21 401.58C326.07 402.53 325.86 404.99 325.85 405.09C325.846 405.128 325.852 405.167 325.868 405.202C325.884 405.237 325.909 405.268 325.94 405.29C325.977 405.306 326.019 405.313 326.06 405.31ZM328.24 401.61H328.37C328.76 401.61 328.79 401.8 328.79 401.86C328.9 402.48 327.44 404.02 326.33 404.69C326.415 403.656 326.821 402.674 327.49 401.88C327.699 401.702 327.965 401.606 328.24 401.61V401.61Z" fill="#407BFF"/>
<path d="M381.84 404H371.59C371.507 403.995 371.425 404.008 371.348 404.039C371.272 404.069 371.203 404.116 371.146 404.176C371.09 404.236 371.048 404.308 371.022 404.387C370.997 404.465 370.989 404.548 371 404.63L371.52 412.73C371.58 413.17 371.794 413.574 372.123 413.872C372.452 414.17 372.876 414.343 373.32 414.36C376.88 414.29 378.56 414.08 383.06 414.08C385.84 414.08 391.63 414.37 395.46 414.37C399.29 414.37 398.7 410.59 397.04 410.24C389.57 408.71 386.31 406.59 383.48 404.56C383.003 404.21 382.431 404.015 381.84 404V404Z" fill="#263238"/>
<path d="M385.26 405.63C386.042 405.701 386.825 405.504 387.48 405.07C387.626 404.938 387.737 404.772 387.805 404.588C387.873 404.403 387.895 404.205 387.87 404.01C387.861 403.892 387.822 403.777 387.758 403.678C387.693 403.578 387.604 403.496 387.5 403.44C386.38 402.82 382.75 404.68 382.34 404.9C382.3 404.92 382.267 404.952 382.246 404.991C382.224 405.03 382.215 405.075 382.22 405.12C382.228 405.163 382.249 405.203 382.279 405.235C382.309 405.267 382.347 405.289 382.39 405.3C383.334 405.501 384.295 405.612 385.26 405.63V405.63ZM386.89 403.74C387.028 403.734 387.165 403.762 387.29 403.82C387.333 403.841 387.37 403.874 387.396 403.914C387.423 403.955 387.438 404.002 387.44 404.05C387.457 404.177 387.444 404.305 387.4 404.426C387.356 404.546 387.284 404.654 387.19 404.74C386.63 405.24 385.13 405.33 383.11 404.99C384.29 404.362 385.568 403.939 386.89 403.74V403.74Z" fill="#407BFF"/>
<path d="M382.44 405.31H382.53C383.61 404.82 385.76 402.85 385.59 401.82C385.59 401.57 385.38 401.27 384.78 401.21C384.567 401.185 384.351 401.205 384.146 401.269C383.941 401.333 383.751 401.439 383.59 401.58C382.44 402.53 382.23 404.99 382.22 405.09C382.219 405.128 382.226 405.166 382.242 405.2C382.257 405.235 382.281 405.266 382.31 405.29C382.351 405.307 382.396 405.314 382.44 405.31V405.31ZM384.61 401.61H384.74C385.13 401.61 385.16 401.8 385.17 401.86C385.27 402.48 383.81 404.02 382.7 404.69C382.789 403.656 383.194 402.676 383.86 401.88C384.07 401.703 384.336 401.608 384.61 401.61V401.61Z" fill="#407BFF"/>
<path d="M368.86 395.49L383.15 393.19L381.54 385.55L367.38 388.89L368.86 395.49Z" fill="#263238"/>
<path d="M330.57 112.49L332.28 111.82C332.28 111.82 331.51 113.28 330.57 112.49Z" fill="#263238"/>
<path d="M312.15 197.6L311.21 200.92C311.08 201.17 311.38 201.44 311.81 201.44H349.93C350.27 201.44 350.54 201.27 350.56 201.06L350.9 197.75C350.9 197.52 350.63 197.32 350.27 197.32H312.76C312.643 197.31 312.525 197.33 312.418 197.379C312.311 197.428 312.219 197.504 312.15 197.6Z" fill="#263238"/>
<path d="M317.32 201.79H316.32C316.12 201.79 315.97 201.69 315.98 201.57L316.45 197.26C316.45 197.13 316.64 197.03 316.84 197.03H317.84C318.04 197.03 318.19 197.13 318.18 197.26L317.7 201.57C317.69 201.69 317.52 201.79 317.32 201.79Z" fill="#407BFF"/>
<path d="M347.11 201.79H346.11C345.91 201.79 345.75 201.69 345.77 201.57L346.24 197.26C346.24 197.13 346.43 197.03 346.63 197.03H347.63C347.83 197.03 347.98 197.13 347.97 197.26L347.5 201.57C347.48 201.69 347.31 201.79 347.11 201.79Z" fill="#407BFF"/>
<path d="M332.27 201.79H331.27C331.07 201.79 330.92 201.69 330.93 201.57L331.4 197.26C331.4 197.13 331.59 197.03 331.79 197.03H332.79C332.99 197.03 333.14 197.13 333.12 197.26L332.65 201.57C332.65 201.69 332.47 201.79 332.27 201.79Z" fill="#407BFF"/>
<path d="M320.27 142.09C314.46 142.62 305.58 141.52 305.85 150.43C306.12 159.34 304.39 182.94 304.85 193.99C305.31 205.04 302.43 276.59 307.09 297.33C307.91 300.98 338.01 300.51 341.65 300.16V296.87C341.65 296.87 363.52 293.93 368.93 294.87C368.46 282.41 356.35 219.47 355.88 201.79C355.41 184.11 357.4 153.73 357.28 148.91C357.16 144.09 347.58 141.97 341.71 142.09C343.01 146.44 340.14 154.61 335.55 163.72C324.26 152.72 320.93 147.26 320.27 142.09Z" fill="#407BFF"/>
<path opacity="0.7" d="M320.27 142.09C314.46 142.62 305.58 141.52 305.85 150.43C306.12 159.34 304.39 182.94 304.85 193.99C305.31 205.04 302.43 276.59 307.09 297.33C307.91 300.98 338.01 300.51 341.65 300.16V296.87C341.65 296.87 363.52 293.93 368.93 294.87C368.46 282.41 356.35 219.47 355.88 201.79C355.41 184.11 357.4 153.73 357.28 148.91C357.16 144.09 347.58 141.97 341.71 142.09C343.01 146.44 340.14 154.61 335.55 163.72C324.26 152.72 320.93 147.26 320.27 142.09Z" fill="white"/>
<path opacity="0.2" d="M309.21 163.22L305.49 165.85C305.2 173.55 304.81 182.18 304.77 188.85C308.23 181.2 310.18 170.16 309.21 163.22Z" fill="#407BFF"/>
<path d="M321.06 155.23C320.871 155.511 320.667 155.781 320.45 156.04L320.24 156.28L320.13 156.4L319.93 156.61L319.53 157.04L318.73 157.93C318.19 158.52 317.67 159.13 317.15 159.75C316.11 160.99 315.11 162.253 314.15 163.54C312.188 166.11 310.363 168.78 308.68 171.54C305.373 176.636 302.984 182.271 301.62 188.19C301.368 189.511 301.211 190.847 301.15 192.19C301.212 192.858 301.406 193.507 301.72 194.1C302.989 196.788 304.517 199.347 306.28 201.74C308.13 204.38 310.23 206.95 312.38 209.49C313.46 210.77 314.58 212.01 315.71 213.24C316.84 214.47 318.02 215.73 319.12 216.82L308.34 227.24C307.03 225.81 305.87 224.51 304.66 223.14L301.13 219.01C298.79 216.24 296.54 213.36 294.32 210.34C291.91 207.15 289.826 203.726 288.1 200.12C287.595 199.003 287.164 197.854 286.81 196.68C286.602 195.981 286.438 195.27 286.32 194.55C286.243 194.137 286.19 193.719 286.16 193.3C286.12 192.861 286.103 192.421 286.11 191.98C286.134 189.833 286.317 187.69 286.66 185.57C287.352 181.565 288.472 177.646 290 173.88C291.438 170.314 293.108 166.847 295 163.5C296.84 160.2 298.86 157.05 300.95 153.97C302.01 152.43 303.09 150.92 304.22 149.43L305.93 147.2L306.82 146.08L307.27 145.52L307.5 145.25L307.6 145.12L307.46 145.28C307.28 145.51 307.11 145.74 306.95 145.98L321.06 155.23Z" fill="#407BFF"/>
<path opacity="0.7" d="M321.06 155.23C320.871 155.511 320.667 155.781 320.45 156.04L320.24 156.28L320.13 156.4L319.93 156.61L319.53 157.04L318.73 157.93C318.19 158.52 317.67 159.13 317.15 159.75C316.11 160.99 315.11 162.253 314.15 163.54C312.188 166.11 310.363 168.78 308.68 171.54C305.373 176.636 302.984 182.271 301.62 188.19C301.368 189.511 301.211 190.847 301.15 192.19C301.212 192.858 301.406 193.507 301.72 194.1C302.989 196.788 304.517 199.347 306.28 201.74C308.13 204.38 310.23 206.95 312.38 209.49C313.46 210.77 314.58 212.01 315.71 213.24C316.84 214.47 318.02 215.73 319.12 216.82L308.34 227.24C307.03 225.81 305.87 224.51 304.66 223.14L301.13 219.01C298.79 216.24 296.54 213.36 294.32 210.34C291.91 207.15 289.826 203.726 288.1 200.12C287.595 199.003 287.164 197.854 286.81 196.68C286.602 195.981 286.438 195.27 286.32 194.55C286.243 194.137 286.19 193.719 286.16 193.3C286.12 192.861 286.103 192.421 286.11 191.98C286.134 189.833 286.317 187.69 286.66 185.57C287.352 181.565 288.472 177.646 290 173.88C291.438 170.314 293.108 166.847 295 163.5C296.84 160.2 298.86 157.05 300.95 153.97C302.01 152.43 303.09 150.92 304.22 149.43L305.93 147.2L306.82 146.08L307.27 145.52L307.5 145.25L307.6 145.12L307.46 145.28C307.28 145.51 307.11 145.74 306.95 145.98L321.06 155.23Z" fill="white"/>
<path opacity="0.3" d="M335.56 163.72C336.61 185.06 342.31 259.48 341.66 296.87L343.4 296.64C343.4 296.64 340.7 239.14 339.48 213.98C338.26 188.82 335.56 163.72 335.56 163.72Z" fill="#407BFF"/>
<path opacity="0.3" d="M318.28 217L307.6 228.56C307.6 232.44 304.89 240.2 312.07 243.02C319.25 245.84 319.44 225.38 318.28 217Z" fill="#407BFF"/>
<path opacity="0.3" d="M353.1 216.64L357.8 228.42C357.94 232.42 359.31 240.42 356.53 243.47C353.75 246.52 352.94 225.31 353.1 216.64Z" fill="#407BFF"/>
<path d="M341.43 171.15L353.16 171.07C353.276 171.075 353.393 171.055 353.501 171.011C353.61 170.966 353.707 170.899 353.787 170.814C353.867 170.728 353.927 170.626 353.964 170.515C354 170.404 354.013 170.286 354 170.17L353.35 164.61C353.311 164.369 353.19 164.15 353.008 163.987C352.826 163.825 352.593 163.731 352.35 163.72L340.61 163.79C340.493 163.787 340.377 163.808 340.27 163.853C340.162 163.898 340.066 163.965 339.986 164.05C339.907 164.136 339.846 164.237 339.809 164.347C339.772 164.457 339.758 164.574 339.77 164.69L340.42 170.26C340.461 170.502 340.583 170.722 340.767 170.884C340.951 171.046 341.185 171.14 341.43 171.15V171.15Z" fill="white" stroke="#407BFF" stroke-width="0.5" stroke-miterlimit="10"/>
</svg>
