<svg width="500" height="500" viewBox="0 0 500 500" fill="none" xmlns="http://www.w3.org/2000/svg">
<g filter="url(#filter0_d_205_486)">
<path d="M106.09 319.86C82.3198 290.2 97.0898 234.1 133.09 199.99C164.53 170.24 198.34 173.36 225.79 134.99C251.37 99.2399 264.84 60.9899 313.41 45.8199C351.64 33.8999 377.82 53.0799 401 75.4399C464.42 136.6 450.62 200.89 367.76 266.62C328.16 298 276.15 332.78 229.3 348.13C173.08 366.55 135.55 356.64 106.09 319.86Z" fill="#407BFF"/>
<path opacity="0.9" d="M106.09 319.86C82.3198 290.2 97.0898 234.1 133.09 199.99C164.53 170.24 198.34 173.36 225.79 134.99C251.37 99.2399 264.84 60.9899 313.41 45.8199C351.64 33.8999 377.82 53.0799 401 75.4399C464.42 136.6 450.62 200.89 367.76 266.62C328.16 298 276.15 332.78 229.3 348.13C173.08 366.55 135.55 356.64 106.09 319.86Z" fill="white"/>
<path d="M250.6 73.0501C261.966 73.0501 271.18 63.8362 271.18 52.4701C271.18 41.1041 261.966 31.8901 250.6 31.8901C239.234 31.8901 230.02 41.1041 230.02 52.4701C230.02 63.8362 239.234 73.0501 250.6 73.0501Z" fill="#407BFF"/>
<path d="M253.56 52.0103L248.43 54.5403L244.1 45.7603L245.93 43.0103L249.23 43.2303L253.56 52.0103Z" fill="white"/>
<path d="M246.47 44.6003C246.378 44.6003 246.287 44.5752 246.208 44.5277C246.128 44.4801 246.064 44.4119 246.02 44.3303L243 38.1403C242.971 38.0812 242.954 38.017 242.95 37.9514C242.946 37.8857 242.955 37.8199 242.976 37.7577C242.998 37.6955 243.031 37.6381 243.075 37.5888C243.118 37.5395 243.171 37.4992 243.23 37.4703C243.289 37.4414 243.353 37.4245 243.419 37.4204C243.485 37.4163 243.551 37.4252 243.613 37.4466C243.675 37.4679 243.732 37.5013 243.782 37.5449C243.831 37.5884 243.871 37.6412 243.9 37.7003L246.9 43.8803C246.929 43.9394 246.946 44.0036 246.95 44.0693C246.954 44.135 246.946 44.2008 246.924 44.2631C246.903 44.3253 246.869 44.3828 246.826 44.432C246.782 44.4813 246.729 44.5215 246.67 44.5503C246.609 44.5834 246.54 44.6005 246.47 44.6003V44.6003Z" fill="white"/>
<path opacity="0.4" d="M256.81 58.59L253.81 52.5L248.68 55.03L251.68 61.12L249.96 61.97L250.31 62.67L258.87 58.44L258.53 57.74L256.81 58.59Z" fill="white"/>
<path d="M257.65 63.6202L252.49 53.1602L250 54.3802L255.16 64.8402L254.32 65.2602L254.68 65.9702L258.83 63.9202L258.48 63.2002L257.65 63.6202Z" fill="white"/>
<path d="M347.82 89.28C345.432 92.5761 342.12 95.0899 338.303 96.5037C334.486 97.9175 330.335 98.1677 326.376 97.2226C322.417 96.2775 318.827 94.1796 316.06 91.1943C313.294 88.2089 311.474 84.4701 310.832 80.4507C310.19 76.4312 310.755 72.3117 312.454 68.6131C314.153 64.9144 316.911 61.8027 320.379 59.6715C323.847 57.5403 327.869 56.4853 331.936 56.6399C336.004 56.7944 339.934 58.1517 343.23 60.54C347.65 63.7425 350.616 68.5696 351.477 73.9594C352.338 79.3491 351.022 84.8601 347.82 89.28V89.28Z" fill="#407BFF"/>
<path d="M338.13 66.6902L334.28 72.0002C334.265 72.0208 334.246 72.0376 334.223 72.0492C334.2 72.0608 334.175 72.0669 334.15 72.0669C334.124 72.0669 334.099 72.0608 334.077 72.0492C334.054 72.0376 334.035 72.0208 334.02 72.0002C333.64 71.3502 332.79 69.0902 337.93 66.4702C337.96 66.4589 337.992 66.4569 338.024 66.4644C338.055 66.4719 338.083 66.4886 338.104 66.5123C338.126 66.536 338.14 66.5656 338.144 66.5973C338.149 66.6291 338.144 66.6614 338.13 66.6902V66.6902Z" fill="white"/>
<path d="M327.65 87.7903C327.566 87.7895 327.484 87.7689 327.41 87.7303C327.352 87.699 327.301 87.6564 327.26 87.6049C327.219 87.5534 327.188 87.4942 327.17 87.4307C327.153 87.3672 327.148 87.3008 327.156 87.2354C327.165 87.17 327.187 87.1071 327.22 87.0503L334.81 73.3603C334.894 73.2234 334.939 73.0659 334.939 72.9053C334.939 72.7446 334.894 72.5872 334.81 72.4503L334.11 71.4503C334.072 71.3967 334.046 71.3362 334.032 71.2722C334.018 71.2082 334.017 71.1421 334.029 71.0778C334.042 71.0135 334.066 70.9523 334.103 70.8977C334.139 70.8432 334.186 70.7964 334.24 70.7603C334.348 70.6859 334.481 70.6568 334.61 70.6793C334.739 70.7017 334.854 70.7739 334.93 70.8803L335.63 71.8803C335.835 72.1698 335.953 72.5116 335.97 72.8657C335.988 73.2199 335.905 73.5717 335.73 73.8803L328.13 87.5803C328.077 87.6562 328.005 87.7161 327.92 87.7532C327.835 87.7902 327.742 87.8031 327.65 87.7903V87.7903Z" fill="white"/>
<path d="M329.7 91.8103C328.909 91.7483 328.173 91.3824 327.646 90.7894C327.119 90.1965 326.841 89.4224 326.872 88.6296C326.904 87.8368 327.24 87.0868 327.812 86.5368C328.384 85.9869 329.147 85.6797 329.94 85.6797C330.734 85.6797 331.496 85.9869 332.068 86.5368C332.64 87.0868 332.977 87.8368 333.008 88.6296C333.039 89.4224 332.762 90.1965 332.235 90.7894C331.707 91.3824 330.971 91.7483 330.18 91.8103C330.02 91.8251 329.86 91.8251 329.7 91.8103V91.8103ZM329.7 86.7503C329.59 86.7404 329.48 86.7404 329.37 86.7503C329.107 86.792 328.854 86.886 328.627 87.0268C328.401 87.1677 328.204 87.3525 328.05 87.5703C327.89 87.7844 327.775 88.0283 327.711 88.2876C327.647 88.5469 327.636 88.8165 327.678 89.0802C327.72 89.344 327.814 89.5967 327.956 89.8234C328.097 90.0502 328.282 90.2463 328.5 90.4003C328.715 90.5616 328.959 90.6781 329.219 90.7429C329.48 90.8077 329.751 90.8195 330.016 90.7775C330.281 90.7355 330.534 90.6406 330.762 90.4985C330.989 90.3564 331.186 90.17 331.34 89.9503V89.9503C331.571 89.6506 331.712 89.2915 331.747 88.9147C331.782 88.538 331.71 88.159 331.538 87.8218C331.366 87.4847 331.102 87.2031 330.777 87.0099C330.452 86.8167 330.078 86.7197 329.7 86.7303V86.7503Z" fill="white"/>
<path d="M339 67.3103L335.15 72.6203C335.134 72.6399 335.124 72.6632 335.119 72.688C335.115 72.7128 335.116 72.7383 335.124 72.7622C335.132 72.7862 335.146 72.8077 335.165 72.8248C335.183 72.842 335.206 72.8542 335.23 72.8603C335.97 73.0303 338.39 73.1203 339.23 67.4203C339.227 67.3949 339.218 67.3707 339.203 67.3498C339.189 67.329 339.169 67.3123 339.146 67.3013C339.123 67.2903 339.097 67.2853 339.072 67.2869C339.046 67.2885 339.022 67.2965 339 67.3103V67.3103Z" fill="white"/>
<path d="M322.67 84.1801C322.607 84.1803 322.545 84.168 322.486 84.1439C322.428 84.1199 322.375 84.0846 322.33 84.0401C322.282 83.9952 322.244 83.941 322.218 83.8808C322.192 83.8206 322.179 83.7557 322.179 83.6901C322.179 83.6245 322.192 83.5596 322.218 83.4994C322.244 83.4392 322.282 83.385 322.33 83.3401L333 71.8501C333.236 71.5968 333.538 71.4148 333.872 71.3246C334.206 71.2345 334.559 71.2398 334.89 71.3401L336.06 71.6901C336.124 71.7073 336.184 71.7372 336.236 71.778C336.288 71.8188 336.331 71.8697 336.362 71.9276C336.394 71.9855 336.414 72.0493 336.42 72.115C336.427 72.1807 336.42 72.2471 336.4 72.3101C336.361 72.4356 336.274 72.5405 336.158 72.6023C336.042 72.664 335.906 72.6776 335.78 72.6401L334.61 72.2901C334.456 72.2447 334.292 72.2432 334.136 72.2855C333.981 72.3279 333.84 72.4126 333.73 72.5301L323 84.0001C322.917 84.0991 322.799 84.1633 322.67 84.1801V84.1801Z" fill="white"/>
<path d="M320.61 85.2301C319.973 85.2295 319.354 85.0263 318.84 84.6501C318.513 84.4195 318.235 84.1259 318.024 83.7864C317.812 83.4469 317.67 83.0685 317.607 82.6734C317.543 82.2783 317.56 81.8745 317.655 81.4858C317.75 81.0972 317.922 80.7314 318.16 80.4101V80.4101C318.397 80.0868 318.696 79.8135 319.04 79.6059C319.383 79.3983 319.763 79.2604 320.16 79.2001C320.552 79.1367 320.953 79.1518 321.339 79.2445C321.725 79.3372 322.089 79.5056 322.41 79.7401C322.911 80.0829 323.296 80.5696 323.515 81.136C323.733 81.7023 323.775 82.3217 323.634 82.9122C323.493 83.5027 323.177 84.0365 322.726 84.4433C322.275 84.85 321.712 85.1104 321.11 85.1901C320.944 85.2142 320.777 85.2276 320.61 85.2301V85.2301ZM320.61 80.1601C320.5 80.1502 320.39 80.1502 320.28 80.1601C320.022 80.2092 319.776 80.3087 319.556 80.4528C319.337 80.5969 319.148 80.7829 319 81.0001C318.775 81.3217 318.649 81.7025 318.638 82.095C318.628 82.4876 318.733 82.8746 318.941 83.2077C319.149 83.5408 319.451 83.8052 319.808 83.9681C320.165 84.131 320.563 84.1851 320.951 84.1237C321.339 84.0622 321.7 83.8879 321.989 83.6225C322.279 83.3572 322.484 83.0124 322.578 82.6313C322.673 82.2503 322.654 81.8497 322.523 81.4796C322.391 81.1095 322.154 80.7862 321.84 80.5501C321.487 80.2899 321.058 80.1529 320.62 80.1601H320.61Z" fill="white"/>
<path d="M376.97 168.51C388.336 168.51 397.55 159.296 397.55 147.93C397.55 136.564 388.336 127.35 376.97 127.35C365.604 127.35 356.39 136.564 356.39 147.93C356.39 159.296 365.604 168.51 376.97 168.51Z" fill="#407BFF"/>
<path opacity="0.5" d="M390 145.74L385.59 159.74C385.34 160.513 384.796 161.155 384.075 161.53C383.355 161.904 382.516 161.979 381.74 161.74L365.16 156.52C364.385 156.274 363.739 155.731 363.364 155.009C362.989 154.287 362.916 153.446 363.16 152.67L368.38 136.1C368.626 135.325 369.17 134.679 369.891 134.304C370.613 133.929 371.455 133.856 372.23 134.1L386.23 138.51L385.43 141.07C385.186 141.846 385.259 142.687 385.634 143.409C386.009 144.131 386.655 144.674 387.43 144.92L390 145.74Z" fill="white"/>
<path opacity="0.5" d="M388.4 145.24L383.99 159.24C383.877 159.595 383.629 159.89 383.3 160.063C382.97 160.235 382.586 160.27 382.23 160.16L365.66 155C365.307 154.885 365.013 154.637 364.841 154.308C364.669 153.979 364.633 153.596 364.74 153.24L370 136.62C370.056 136.445 370.146 136.282 370.264 136.142C370.383 136.001 370.528 135.885 370.691 135.8C370.855 135.716 371.033 135.664 371.217 135.649C371.4 135.634 371.585 135.654 371.76 135.71L385.76 140.12L385.46 141.12C385.215 141.896 385.289 142.737 385.664 143.459C386.039 144.181 386.685 144.724 387.46 144.97L388.4 145.24Z" fill="white"/>
<path opacity="0.5" d="M377.81 148.2C377.756 148.366 377.655 148.511 377.518 148.619C377.382 148.727 377.217 148.792 377.043 148.806C376.87 148.82 376.697 148.782 376.545 148.698C376.393 148.613 376.269 148.485 376.19 148.331C376.111 148.176 376.079 148.001 376.098 147.829C376.118 147.656 376.189 147.493 376.301 147.36C376.413 147.228 376.562 147.131 376.73 147.083C376.897 147.035 377.074 147.038 377.24 147.09C377.461 147.164 377.645 147.321 377.752 147.529C377.859 147.736 377.879 147.978 377.81 148.2V148.2Z" fill="white"/>
<path opacity="0.5" d="M376.91 151.08C376.876 151.192 376.82 151.295 376.746 151.385C376.671 151.474 376.58 151.548 376.476 151.602C376.373 151.656 376.26 151.689 376.144 151.699C376.028 151.709 375.911 151.696 375.8 151.66C375.578 151.587 375.394 151.43 375.285 151.223C375.177 151.015 375.154 150.774 375.22 150.55C375.307 150.347 375.466 150.184 375.666 150.091C375.867 149.999 376.094 149.985 376.305 150.051C376.516 150.117 376.694 150.259 376.806 150.449C376.918 150.639 376.955 150.864 376.91 151.08V151.08Z" fill="white"/>
<path opacity="0.5" d="M378.72 145.32C378.666 145.485 378.565 145.631 378.429 145.739C378.292 145.847 378.127 145.912 377.954 145.926C377.78 145.94 377.607 145.902 377.455 145.817C377.303 145.733 377.18 145.605 377.1 145.45C377.021 145.296 376.989 145.121 377.009 144.948C377.028 144.776 377.099 144.613 377.211 144.48C377.324 144.347 377.473 144.251 377.64 144.203C377.807 144.155 377.984 144.157 378.15 144.21C378.26 144.245 378.363 144.302 378.451 144.377C378.54 144.452 378.613 144.543 378.666 144.646C378.719 144.75 378.751 144.862 378.76 144.978C378.769 145.093 378.756 145.21 378.72 145.32V145.32Z" fill="white"/>
<path opacity="0.5" d="M380.7 149.11C380.665 149.221 380.608 149.323 380.533 149.412C380.458 149.5 380.367 149.573 380.263 149.626C380.16 149.679 380.048 149.711 379.932 149.72C379.817 149.73 379.7 149.716 379.59 149.68C379.367 149.61 379.181 149.454 379.074 149.247C378.966 149.04 378.945 148.798 379.015 148.575C379.085 148.353 379.241 148.167 379.448 148.059C379.656 147.951 379.897 147.93 380.12 148C380.343 148.072 380.53 148.228 380.638 148.436C380.747 148.644 380.769 148.886 380.7 149.11V149.11Z" fill="white"/>
<path opacity="0.5" d="M379.79 152C379.72 152.223 379.564 152.409 379.357 152.517C379.15 152.624 378.908 152.646 378.685 152.575C378.462 152.505 378.277 152.349 378.169 152.142C378.061 151.935 378.04 151.693 378.11 151.47C378.145 151.36 378.201 151.258 378.276 151.169C378.35 151.08 378.441 151.007 378.544 150.954C378.646 150.901 378.758 150.868 378.874 150.858C378.989 150.848 379.105 150.861 379.215 150.895C379.325 150.93 379.428 150.986 379.516 151.061C379.605 151.135 379.678 151.226 379.732 151.329C379.785 151.431 379.818 151.543 379.828 151.659C379.838 151.774 379.825 151.89 379.79 152V152Z" fill="white"/>
<path opacity="0.5" d="M381.61 146.22C381.576 146.332 381.52 146.435 381.445 146.525C381.371 146.614 381.279 146.688 381.176 146.742C381.073 146.796 380.96 146.829 380.844 146.839C380.728 146.849 380.611 146.836 380.5 146.8C380.278 146.727 380.093 146.57 379.985 146.363C379.877 146.156 379.853 145.914 379.92 145.69C380.007 145.487 380.166 145.324 380.366 145.232C380.566 145.139 380.794 145.125 381.005 145.191C381.215 145.257 381.394 145.399 381.506 145.589C381.617 145.779 381.655 146.004 381.61 146.22Z" fill="white"/>
<path opacity="0.5" d="M383.58 150C383.504 150.215 383.348 150.391 383.145 150.493C382.942 150.596 382.707 150.615 382.49 150.548C382.273 150.481 382.09 150.332 381.98 150.133C381.87 149.934 381.841 149.7 381.9 149.48C381.93 149.366 381.984 149.259 382.057 149.165C382.13 149.072 382.221 148.994 382.324 148.937C382.428 148.88 382.542 148.844 382.66 148.832C382.778 148.82 382.897 148.831 383.01 148.866C383.124 148.902 383.228 148.959 383.319 149.036C383.409 149.112 383.483 149.206 383.536 149.312C383.59 149.418 383.621 149.534 383.628 149.652C383.636 149.77 383.619 149.889 383.58 150V150Z" fill="white"/>
<path opacity="0.5" d="M382.67 152.9C382.617 153.065 382.515 153.211 382.379 153.319C382.242 153.427 382.077 153.492 381.904 153.506C381.73 153.52 381.557 153.482 381.405 153.397C381.253 153.313 381.13 153.185 381.05 153.031C380.971 152.876 380.939 152.701 380.959 152.528C380.979 152.356 381.049 152.193 381.161 152.06C381.274 151.927 381.423 151.831 381.59 151.783C381.757 151.735 381.935 151.737 382.1 151.79C382.322 151.863 382.506 152.021 382.612 152.228C382.719 152.436 382.74 152.677 382.67 152.9V152.9Z" fill="white"/>
<path opacity="0.5" d="M384.49 147.13C384.437 147.295 384.336 147.441 384.201 147.55C384.065 147.658 383.9 147.723 383.727 147.738C383.554 147.753 383.381 147.716 383.229 147.633C383.076 147.549 382.952 147.423 382.872 147.269C382.792 147.115 382.759 146.941 382.777 146.768C382.795 146.596 382.864 146.432 382.975 146.299C383.086 146.165 383.234 146.068 383.4 146.018C383.567 145.969 383.744 145.969 383.91 146.02C384.133 146.091 384.32 146.248 384.428 146.456C384.537 146.664 384.559 146.906 384.49 147.13Z" fill="white"/>
<path opacity="0.5" d="M374.93 147.29C374.877 147.456 374.776 147.601 374.64 147.71C374.505 147.818 374.34 147.884 374.167 147.898C373.994 147.913 373.821 147.877 373.669 147.793C373.516 147.71 373.392 147.583 373.312 147.429C373.232 147.275 373.198 147.101 373.217 146.929C373.235 146.756 373.304 146.593 373.415 146.459C373.526 146.326 373.674 146.228 373.84 146.178C374.007 146.129 374.184 146.129 374.35 146.18C374.573 146.252 374.76 146.408 374.868 146.616C374.977 146.824 374.999 147.066 374.93 147.29V147.29Z" fill="white"/>
<path opacity="0.5" d="M374 150.18C373.947 150.346 373.845 150.491 373.709 150.599C373.572 150.707 373.407 150.772 373.234 150.786C373.061 150.8 372.887 150.762 372.735 150.678C372.583 150.593 372.46 150.465 372.38 150.311C372.301 150.156 372.269 149.981 372.289 149.809C372.309 149.636 372.379 149.473 372.491 149.34C372.604 149.208 372.753 149.111 372.92 149.063C373.087 149.015 373.265 149.018 373.43 149.07C373.541 149.106 373.643 149.162 373.732 149.237C373.82 149.312 373.893 149.404 373.946 149.507C373.999 149.61 374.031 149.723 374.04 149.838C374.05 149.954 374.036 150.07 374 150.18V150.18Z" fill="white"/>
<path opacity="0.5" d="M375.84 144.41C375.805 144.521 375.748 144.623 375.673 144.712C375.598 144.8 375.507 144.873 375.404 144.926C375.3 144.979 375.188 145.011 375.072 145.02C374.957 145.029 374.84 145.016 374.73 144.98C374.507 144.91 374.322 144.754 374.214 144.547C374.106 144.339 374.085 144.098 374.155 143.875C374.225 143.652 374.381 143.467 374.588 143.359C374.796 143.251 375.037 143.23 375.26 143.3C375.483 143.371 375.67 143.528 375.778 143.736C375.887 143.944 375.909 144.186 375.84 144.41Z" fill="white"/>
<path opacity="0.5" d="M372.05 146.38C372.016 146.491 371.96 146.595 371.885 146.685C371.811 146.774 371.719 146.848 371.616 146.902C371.513 146.956 371.4 146.989 371.284 146.999C371.168 147.009 371.051 146.996 370.94 146.96C370.718 146.887 370.533 146.73 370.425 146.522C370.317 146.315 370.293 146.074 370.36 145.85C370.446 145.647 370.606 145.484 370.806 145.391C371.006 145.299 371.234 145.284 371.445 145.35C371.655 145.416 371.834 145.558 371.946 145.749C372.057 145.939 372.095 146.164 372.05 146.38V146.38Z" fill="white"/>
<path opacity="0.5" d="M371.14 149.27C371.105 149.38 371.048 149.483 370.973 149.571C370.898 149.66 370.807 149.733 370.703 149.786C370.6 149.839 370.488 149.871 370.372 149.88C370.256 149.889 370.14 149.876 370.03 149.84C369.807 149.77 369.621 149.614 369.514 149.407C369.406 149.199 369.385 148.958 369.455 148.735C369.525 148.512 369.681 148.326 369.888 148.219C370.096 148.111 370.337 148.09 370.56 148.16C370.783 148.231 370.97 148.388 371.078 148.596C371.187 148.804 371.209 149.046 371.14 149.27V149.27Z" fill="white"/>
<path opacity="0.5" d="M373 143.5C372.947 143.666 372.845 143.811 372.709 143.919C372.572 144.027 372.407 144.092 372.234 144.106C372.061 144.12 371.887 144.082 371.735 143.997C371.583 143.913 371.46 143.785 371.38 143.631C371.301 143.476 371.269 143.301 371.289 143.129C371.309 142.956 371.379 142.793 371.491 142.66C371.604 142.527 371.753 142.431 371.92 142.383C372.087 142.335 372.265 142.337 372.43 142.39C372.652 142.463 372.836 142.621 372.942 142.829C373.049 143.036 373.07 143.277 373 143.5V143.5Z" fill="white"/>
<path d="M386.23 138.52L385.42 141.08C385.181 141.856 385.256 142.695 385.631 143.415C386.005 144.135 386.648 144.68 387.42 144.93L389.98 145.74L386.23 138.52Z" fill="white"/>
<path d="M172.99 105.89C184.356 105.89 193.57 96.676 193.57 85.31C193.57 73.944 184.356 64.73 172.99 64.73C161.624 64.73 152.41 73.944 152.41 85.31C152.41 96.676 161.624 105.89 172.99 105.89Z" fill="#407BFF"/>
<g opacity="0.4">
<path opacity="0.4" d="M173 71.6201C170.292 71.6201 167.646 72.423 165.394 73.9273C163.143 75.4316 161.388 77.5697 160.352 80.0712C159.316 82.5727 159.045 85.3253 159.573 87.9809C160.101 90.6365 161.405 93.0758 163.32 94.9904C165.234 96.905 167.674 98.2088 170.329 98.7371C172.985 99.2653 175.737 98.9942 178.239 97.958C180.741 96.9219 182.879 95.1672 184.383 92.9159C185.887 90.6646 186.69 88.0177 186.69 85.3101C186.691 83.5119 186.338 81.7312 185.651 80.0696C184.963 78.4081 183.955 76.8984 182.683 75.6269C181.412 74.3554 179.902 73.347 178.241 72.6595C176.579 71.972 174.798 71.6188 173 71.6201V71.6201ZM173 95.7201C170.938 95.7241 168.921 95.1161 167.205 93.9731C165.488 92.8301 164.149 91.2035 163.358 89.2992C162.567 87.395 162.358 85.2988 162.759 83.2759C163.159 81.253 164.151 79.3945 165.608 77.9356C167.066 76.4768 168.924 75.4832 170.946 75.0806C172.968 74.678 175.065 74.8847 176.97 75.6743C178.875 76.4639 180.503 77.801 181.647 79.5163C182.792 81.2316 183.402 83.248 183.4 85.3101C183.4 88.0693 182.305 90.7156 180.355 92.6676C178.404 94.6195 175.759 95.7175 173 95.7201Z" fill="white"/>
</g>
<g opacity="0.4">
<path opacity="0.4" d="M173 74C170.757 74 168.565 74.6651 166.7 75.9111C164.835 77.1572 163.382 78.9283 162.523 81.0004C161.665 83.0725 161.441 85.3526 161.878 87.5523C162.316 89.7521 163.396 91.7727 164.982 93.3586C166.567 94.9445 168.588 96.0245 170.788 96.4621C172.988 96.8997 175.268 96.6751 177.34 95.8168C179.412 94.9585 181.183 93.505 182.429 91.6402C183.675 89.7753 184.34 87.5828 184.34 85.34C184.34 82.3324 183.145 79.4481 181.019 77.3214C178.892 75.1947 176.008 74 173 74V74ZM173 95.75C170.939 95.754 168.924 95.1467 167.208 94.005C165.492 92.8633 164.153 91.2385 163.361 89.336C162.569 87.4336 162.358 85.3388 162.757 83.3168C163.155 81.2947 164.144 79.4362 165.598 77.9761C167.052 76.5161 168.907 75.5201 170.928 75.1142C172.948 74.7082 175.044 74.9105 176.949 75.6956C178.855 76.4806 180.485 77.813 181.633 79.5243C182.781 81.2357 183.396 83.2491 183.4 85.31C183.4 88.0692 182.305 90.7155 180.355 92.6674C178.405 94.6194 175.759 95.7174 173 95.72V95.75Z" fill="white"/>
</g>
<path d="M366.6 252.14C377.966 252.14 387.18 242.926 387.18 231.56C387.18 220.194 377.966 210.98 366.6 210.98C355.234 210.98 346.02 220.194 346.02 231.56C346.02 242.926 355.234 252.14 366.6 252.14Z" fill="#407BFF"/>
<path opacity="0.7" d="M377.88 225.82H355.32C354.448 225.82 353.74 226.528 353.74 227.4V235.74C353.74 236.613 354.448 237.32 355.32 237.32H377.88C378.753 237.32 379.46 236.613 379.46 235.74V227.4C379.46 226.528 378.753 225.82 377.88 225.82Z" fill="white"/>
<path d="M369.68 231.29C369.428 231.471 369.128 231.573 368.817 231.584C368.507 231.594 368.2 231.513 367.936 231.349C367.673 231.185 367.463 230.947 367.335 230.664C367.206 230.381 367.165 230.067 367.215 229.76C367.266 229.454 367.406 229.169 367.618 228.942C367.83 228.715 368.105 228.557 368.407 228.486C368.71 228.415 369.026 228.436 369.317 228.545C369.608 228.655 369.859 228.848 370.04 229.1C370.28 229.439 370.377 229.859 370.31 230.269C370.242 230.679 370.016 231.046 369.68 231.29V231.29Z" fill="white"/>
<path d="M365.35 234.39C365.098 234.571 364.798 234.674 364.487 234.684C364.177 234.695 363.87 234.613 363.606 234.449C363.343 234.285 363.133 234.047 363.005 233.764C362.876 233.481 362.835 233.167 362.885 232.86C362.935 232.554 363.076 232.269 363.288 232.042C363.5 231.816 363.775 231.657 364.077 231.586C364.379 231.515 364.696 231.536 364.987 231.645C365.277 231.755 365.529 231.948 365.71 232.2C365.832 232.367 365.919 232.556 365.966 232.757C366.014 232.958 366.021 233.167 365.988 233.37C365.954 233.574 365.881 233.769 365.771 233.944C365.662 234.119 365.519 234.271 365.35 234.39V234.39Z" fill="white"/>
<path d="M372.39 235.08C372.138 235.261 371.838 235.364 371.527 235.374C371.217 235.384 370.91 235.303 370.646 235.139C370.383 234.975 370.173 234.737 370.045 234.454C369.916 234.171 369.875 233.857 369.925 233.55C369.975 233.244 370.116 232.959 370.328 232.732C370.54 232.506 370.815 232.347 371.117 232.276C371.419 232.205 371.736 232.226 372.027 232.335C372.317 232.445 372.569 232.638 372.75 232.89C372.993 233.228 373.091 233.649 373.024 234.06C372.956 234.47 372.728 234.837 372.39 235.08V235.08Z" fill="white"/>
<path d="M368.06 238.17C367.809 238.349 367.511 238.45 367.202 238.46C366.894 238.47 366.59 238.388 366.328 238.225C366.067 238.062 365.859 237.825 365.732 237.544C365.605 237.263 365.564 236.951 365.614 236.647C365.664 236.342 365.804 236.06 366.014 235.835C366.225 235.61 366.498 235.452 366.798 235.382C367.098 235.312 367.412 235.332 367.701 235.44C367.99 235.548 368.24 235.74 368.42 235.99C368.54 236.157 368.625 236.346 368.672 236.545C368.719 236.745 368.726 236.952 368.692 237.155C368.659 237.358 368.586 237.551 368.477 237.726C368.369 237.9 368.227 238.051 368.06 238.17V238.17Z" fill="white"/>
<path d="M375.1 238.86C374.848 239.043 374.547 239.146 374.236 239.158C373.925 239.169 373.618 239.087 373.353 238.924C373.089 238.76 372.879 238.521 372.75 238.238C372.621 237.955 372.58 237.64 372.63 237.333C372.681 237.026 372.822 236.741 373.035 236.514C373.248 236.287 373.523 236.129 373.827 236.059C374.13 235.989 374.447 236.011 374.738 236.121C375.029 236.232 375.28 236.426 375.46 236.68C375.697 237.019 375.792 237.436 375.724 237.844C375.657 238.251 375.433 238.616 375.1 238.86V238.86Z" fill="white"/>
<path d="M370.77 242C370.518 242.181 370.218 242.283 369.907 242.294C369.597 242.304 369.29 242.223 369.026 242.059C368.762 241.895 368.553 241.657 368.425 241.374C368.296 241.091 368.255 240.777 368.305 240.47C368.355 240.164 368.495 239.879 368.708 239.652C368.92 239.425 369.195 239.267 369.497 239.196C369.799 239.125 370.116 239.146 370.407 239.255C370.697 239.364 370.949 239.558 371.13 239.81C371.373 240.148 371.471 240.569 371.403 240.979C371.336 241.39 371.108 241.757 370.77 242V242Z" fill="white"/>
<path d="M367 227.5C366.749 227.68 366.451 227.78 366.142 227.79C365.834 227.8 365.53 227.718 365.268 227.555C365.007 227.392 364.799 227.155 364.672 226.874C364.545 226.593 364.504 226.281 364.554 225.977C364.604 225.673 364.744 225.39 364.954 225.165C365.165 224.94 365.438 224.782 365.738 224.712C366.038 224.642 366.352 224.662 366.641 224.77C366.93 224.879 367.18 225.07 367.36 225.32C367.599 225.658 367.696 226.076 367.628 226.484C367.561 226.893 367.335 227.258 367 227.5Z" fill="white"/>
<path d="M362.64 230.6C362.388 230.783 362.087 230.886 361.776 230.897C361.465 230.909 361.158 230.827 360.894 230.664C360.629 230.5 360.419 230.261 360.29 229.978C360.161 229.695 360.12 229.38 360.17 229.073C360.221 228.765 360.362 228.48 360.575 228.254C360.788 228.027 361.063 227.868 361.367 227.798C361.67 227.729 361.987 227.75 362.278 227.861C362.569 227.972 362.82 228.166 363 228.42C363.121 228.586 363.208 228.775 363.255 228.975C363.303 229.175 363.31 229.383 363.277 229.585C363.243 229.788 363.17 229.983 363.06 230.157C362.951 230.331 362.808 230.482 362.64 230.6V230.6Z" fill="white"/>
<path d="M364.26 223.72C364.008 223.901 363.708 224.004 363.397 224.014C363.087 224.025 362.78 223.943 362.517 223.779C362.253 223.615 362.043 223.377 361.915 223.094C361.786 222.811 361.745 222.497 361.795 222.19C361.846 221.884 361.986 221.599 362.198 221.372C362.41 221.146 362.685 220.987 362.987 220.916C363.29 220.846 363.606 220.866 363.897 220.975C364.188 221.085 364.439 221.278 364.62 221.53C364.86 221.869 364.957 222.289 364.89 222.699C364.822 223.109 364.596 223.476 364.26 223.72Z" fill="white"/>
<path d="M359.93 226.81C359.679 226.989 359.381 227.09 359.073 227.1C358.764 227.109 358.46 227.028 358.199 226.865C357.937 226.702 357.729 226.465 357.602 226.184C357.475 225.903 357.434 225.591 357.484 225.286C357.534 224.982 357.674 224.7 357.884 224.474C358.095 224.249 358.368 224.092 358.668 224.021C358.968 223.951 359.283 223.972 359.571 224.08C359.86 224.188 360.11 224.38 360.29 224.63C360.411 224.796 360.498 224.985 360.546 225.185C360.593 225.385 360.6 225.592 360.567 225.795C360.533 225.998 360.46 226.192 360.35 226.367C360.241 226.541 360.098 226.691 359.93 226.81V226.81Z" fill="white"/>
<path d="M166.62 258.33C163.484 260.922 159.65 262.527 155.602 262.94C151.554 263.354 147.474 262.559 143.878 260.655C140.282 258.751 137.332 255.824 135.399 252.243C133.466 248.663 132.638 244.589 133.019 240.538C133.401 236.487 134.974 232.64 137.541 229.483C140.108 226.326 143.554 224.001 147.442 222.802C151.33 221.602 155.486 221.582 159.386 222.744C163.285 223.906 166.753 226.198 169.35 229.33C171.077 231.412 172.377 233.815 173.174 236.4C173.972 238.985 174.252 241.703 173.998 244.396C173.745 247.09 172.962 249.707 171.696 252.098C170.43 254.489 168.705 256.606 166.62 258.33V258.33Z" fill="#407BFF"/>
<path opacity="0.6" d="M142.07 251.94C141.865 251.69 141.767 251.369 141.797 251.047C141.827 250.726 141.983 250.428 142.23 250.22L163.23 232.86C163.353 232.758 163.496 232.68 163.649 232.633C163.802 232.585 163.963 232.569 164.123 232.583C164.283 232.598 164.438 232.644 164.58 232.719C164.722 232.794 164.848 232.897 164.95 233.02V233.02C165.053 233.144 165.13 233.286 165.177 233.439C165.225 233.593 165.242 233.754 165.227 233.913C165.212 234.073 165.166 234.228 165.091 234.37C165.016 234.512 164.914 234.638 164.79 234.74L143.79 252.1C143.667 252.203 143.524 252.28 143.371 252.328C143.218 252.375 143.057 252.392 142.897 252.377C142.737 252.362 142.582 252.316 142.44 252.241C142.298 252.166 142.172 252.064 142.07 251.94Z" fill="white"/>
<path opacity="0.6" d="M161.49 235.87C161.42 235.787 161.368 235.691 161.336 235.587C161.304 235.484 161.293 235.375 161.303 235.267C161.313 235.159 161.345 235.054 161.396 234.959C161.447 234.863 161.516 234.779 161.6 234.71L163.24 233.35C163.409 233.212 163.625 233.147 163.842 233.167C164.059 233.188 164.26 233.293 164.4 233.46V233.46C164.535 233.63 164.599 233.846 164.579 234.062C164.558 234.279 164.455 234.478 164.29 234.62L162.64 236C162.556 236.068 162.46 236.119 162.356 236.149C162.253 236.179 162.145 236.189 162.038 236.177C161.93 236.165 161.827 236.131 161.733 236.079C161.639 236.026 161.556 235.955 161.49 235.87V235.87Z" fill="white"/>
<path opacity="0.6" d="M143.87 249.75C143.819 249.698 143.791 249.628 143.791 249.555C143.791 249.483 143.819 249.413 143.87 249.36L155.6 239.65C155.652 239.6 155.722 239.571 155.795 239.571C155.868 239.571 155.938 239.6 155.99 239.65C156.041 239.703 156.069 239.773 156.069 239.845C156.069 239.918 156.041 239.988 155.99 240.04L144.26 249.75C144.208 249.801 144.138 249.829 144.065 249.829C143.992 249.829 143.922 249.801 143.87 249.75Z" fill="white"/>
<path d="M134.64 180.93C146.006 180.93 155.22 171.716 155.22 160.35C155.22 148.984 146.006 139.77 134.64 139.77C123.274 139.77 114.06 148.984 114.06 160.35C114.06 171.716 123.274 180.93 134.64 180.93Z" fill="#407BFF"/>
<path opacity="0.4" d="M145.99 149.63H123.31C122.15 149.63 121.21 150.571 121.21 151.73V168.97C121.21 170.13 122.15 171.07 123.31 171.07H145.99C147.15 171.07 148.09 170.13 148.09 168.97V151.73C148.09 150.571 147.15 149.63 145.99 149.63Z" fill="white"/>
<path d="M120.36 157.56L123.19 171.47C123.303 172.015 123.627 172.494 124.092 172.801C124.557 173.108 125.124 173.219 125.67 173.11L147.89 168.59C148.434 168.479 148.913 168.157 149.22 167.694C149.528 167.231 149.639 166.665 149.53 166.12L146.7 152.21L120.36 157.56Z" fill="white"/>
<path opacity="0.2" d="M139.01 156.54H135.66V159.29H139.01V156.54Z" fill="#407BFF"/>
<path opacity="0.2" d="M139.83 160.58H136.48V163.33H139.83V160.58Z" fill="#407BFF"/>
<path opacity="0.2" d="M145.13 155.3H141.78V158.05H145.13V155.3Z" fill="#407BFF"/>
<path opacity="0.2" d="M145.95 159.34H142.6V162.09H145.95V159.34Z" fill="#407BFF"/>
<path opacity="0.2" d="M132.89 157.78H129.54V160.53H132.89V157.78Z" fill="#407BFF"/>
<path opacity="0.2" d="M133.71 161.83H130.36V164.58H133.71V161.83Z" fill="#407BFF"/>
<path opacity="0.2" d="M126.77 159.03H123.42V161.78H126.77V159.03Z" fill="#407BFF"/>
<path opacity="0.2" d="M127.59 163.07H124.24V165.82H127.59V163.07Z" fill="#407BFF"/>
<path opacity="0.2" d="M140.65 164.62H137.3V167.37H140.65V164.62Z" fill="#407BFF"/>
<path opacity="0.2" d="M146.78 163.38H143.43V166.13H146.78V163.38Z" fill="#407BFF"/>
<path opacity="0.2" d="M134.53 165.87H131.18V168.62H134.53V165.87Z" fill="#407BFF"/>
<path opacity="0.2" d="M128.41 167.11H125.06V169.86H128.41V167.11Z" fill="#407BFF"/>
<path d="M290.93 126.21C304.17 125.47 311.93 138.42 304.25 146.66C296.57 154.9 302.03 158.95 305.12 160.45C301.74 170.19 274.68 171.53 268.94 163.31C264.12 156.41 282.94 147.53 278.4 140C273.86 132.47 280.63 126 290.93 126.21Z" fill="#263238"/>
<path d="M210.9 184.63L212.76 186.72C213.103 187.109 213.535 187.41 214.019 187.598C214.502 187.786 215.024 187.855 215.54 187.8L220.43 187.28C221.395 187.177 222.321 186.844 223.132 186.31C223.943 185.776 224.614 185.056 225.09 184.21L225.68 183.15C222.84 179.47 217.05 177.58 217.05 177.58L215.46 176.86C215.138 176.702 214.788 176.61 214.43 176.588C214.072 176.567 213.713 176.617 213.374 176.735C213.036 176.853 212.724 177.037 212.457 177.277C212.19 177.516 211.974 177.806 211.82 178.13L210.35 181.26C210.104 181.814 210.025 182.428 210.123 183.027C210.22 183.625 210.49 184.182 210.9 184.63V184.63Z" fill="#FFB573"/>
<path d="M273.44 184.15C272.37 185.35 271.44 186.39 270.37 187.48C269.3 188.57 268.32 189.6 267.28 190.65C265.19 192.74 263.08 194.81 260.88 196.81C256.411 201.028 251.537 204.796 246.33 208.06H246.28C246.151 208.141 246.018 208.214 245.88 208.28C244.422 208.982 242.818 209.325 241.2 209.28C239.983 209.227 238.78 208.995 237.63 208.59C235.971 207.995 234.4 207.178 232.96 206.16C230.676 204.526 228.55 202.681 226.61 200.65C224.75 198.77 223.04 196.85 221.41 194.89C219.78 192.93 218.22 191.02 216.62 188.89L226.52 181.84C227.76 183.58 229.21 185.49 230.64 187.22C232.07 188.95 233.64 190.65 235.15 192.22C236.574 193.659 238.127 194.965 239.79 196.12C240.33 196.492 240.915 196.794 241.53 197.02C241.68 197.07 241.71 197.02 241.53 197.02C241.124 197.005 240.721 197.095 240.36 197.28L239.91 197.52C242.043 196.114 244.086 194.577 246.03 192.92C248.03 191.22 250.03 189.37 251.92 187.45C253.81 185.53 255.71 183.54 257.53 181.5C258.43 180.5 259.33 179.44 260.21 178.39C261.09 177.34 261.98 176.26 262.74 175.29L273.44 184.15Z" fill="#407BFF"/>
<path opacity="0.7" d="M273.44 184.15C272.37 185.35 271.44 186.39 270.37 187.48C269.3 188.57 268.32 189.6 267.28 190.65C265.19 192.74 263.08 194.81 260.88 196.81C256.411 201.028 251.537 204.796 246.33 208.06H246.28C246.151 208.141 246.018 208.214 245.88 208.28C244.422 208.982 242.818 209.325 241.2 209.28C239.983 209.227 238.78 208.995 237.63 208.59C235.971 207.995 234.4 207.178 232.96 206.16C230.676 204.526 228.55 202.681 226.61 200.65C224.75 198.77 223.04 196.85 221.41 194.89C219.78 192.93 218.22 191.02 216.62 188.89L226.52 181.84C227.76 183.58 229.21 185.49 230.64 187.22C232.07 188.95 233.64 190.65 235.15 192.22C236.574 193.659 238.127 194.965 239.79 196.12C240.33 196.492 240.915 196.794 241.53 197.02C241.68 197.07 241.71 197.02 241.53 197.02C241.124 197.005 240.721 197.095 240.36 197.28L239.91 197.52C242.043 196.114 244.086 194.577 246.03 192.92C248.03 191.22 250.03 189.37 251.92 187.45C253.81 185.53 255.71 183.54 257.53 181.5C258.43 180.5 259.33 179.44 260.21 178.39C261.09 177.34 261.98 176.26 262.74 175.29L273.44 184.15Z" fill="white"/>
<path d="M297.14 416.23C304.14 416.23 303.6 416.12 307.51 415.99C310.86 415.87 311.65 416.29 314.33 416.23C316.58 416.18 316.55 414.03 315.93 411.56C315.61 410.32 315.12 408.8 314.69 406.79H304.13C303.26 408.275 302.048 409.532 300.597 410.457C299.145 411.382 297.494 411.949 295.78 412.11C292 412.61 294.37 416.23 297.14 416.23Z" fill="#407BFF"/>
<path d="M244.73 416.23C251.56 416.23 253.86 415.78 257.73 415.65C261.03 415.53 261.54 416.23 264.88 416.23C267.09 416.23 267.51 413.74 266.79 411.87C265.994 410.241 265.355 408.54 264.88 406.79H255.45C253.61 409.79 248.88 411.99 243.68 412.36C239.93 412.63 242 416.23 244.73 416.23Z" fill="#407BFF"/>
<path d="M261.43 230C261.43 230 257.77 279.16 259.22 310.38C257.66 339.69 255.42 406.81 255.42 406.81C255.58 408.31 263.47 407.71 264.85 406.81C264.85 406.81 281.85 357.92 277.55 310.38C296.23 260.78 294.14 230 294.14 230H261.43Z" fill="#263238"/>
<path d="M271.24 230C271.24 230 285.75 285.49 291.51 312.74C297.57 341.35 305.75 387.8 304.13 406.81C305.73 407.76 311.46 407.81 314.69 406.81C314.69 406.81 327.16 341.55 311.43 314C316.93 246.21 298.96 230 298.96 230H271.24Z" fill="#263238"/>
<path d="M303.44 402.83C303.373 404.142 303.216 405.449 302.97 406.74C302.937 406.848 302.928 406.963 302.944 407.076C302.96 407.188 303.001 407.296 303.063 407.391C303.124 407.486 303.206 407.567 303.303 407.627C303.399 407.687 303.507 407.726 303.62 407.74C307.47 408.36 313.09 407.46 314.87 407.14C315.037 407.111 315.192 407.031 315.312 406.911C315.432 406.791 315.511 406.637 315.54 406.47L316.22 402.82C316.243 402.703 316.239 402.583 316.209 402.469C316.178 402.354 316.123 402.248 316.046 402.157C315.969 402.067 315.873 401.995 315.765 401.947C315.656 401.899 315.538 401.876 315.42 401.88L304.25 402.09C304.048 402.093 303.854 402.171 303.705 402.307C303.556 402.443 303.462 402.629 303.44 402.83V402.83Z" fill="#263238"/>
<path opacity="0.1" d="M303.44 402.83C303.373 404.142 303.216 405.449 302.97 406.74C302.937 406.848 302.928 406.963 302.944 407.076C302.96 407.188 303.001 407.296 303.063 407.391C303.124 407.486 303.206 407.567 303.303 407.627C303.399 407.687 303.507 407.726 303.62 407.74C307.47 408.36 313.09 407.46 314.87 407.14C315.037 407.111 315.192 407.031 315.312 406.911C315.432 406.791 315.511 406.637 315.54 406.47L316.22 402.82C316.243 402.703 316.239 402.583 316.209 402.469C316.178 402.354 316.123 402.248 316.046 402.157C315.969 402.067 315.873 401.995 315.765 401.947C315.656 401.899 315.538 401.876 315.42 401.88L304.25 402.09C304.048 402.093 303.854 402.171 303.705 402.307C303.556 402.443 303.462 402.629 303.44 402.83V402.83Z" fill="white"/>
<path d="M254.54 402.66C254.46 403.66 254.32 405.49 254.16 406.83C254.135 407.042 254.194 407.256 254.325 407.424C254.456 407.593 254.648 407.703 254.86 407.73C258.326 408.013 261.811 407.973 265.27 407.61C265.441 407.598 265.603 407.533 265.734 407.424C265.865 407.314 265.958 407.166 266 407L266.87 403.35C266.897 403.233 266.897 403.112 266.872 402.995C266.846 402.878 266.796 402.768 266.723 402.673C266.651 402.578 266.558 402.499 266.452 402.444C266.346 402.388 266.23 402.356 266.11 402.35L255.4 401.93C255.295 401.92 255.19 401.932 255.09 401.964C254.99 401.995 254.897 402.047 254.817 402.114C254.737 402.182 254.671 402.266 254.624 402.359C254.576 402.453 254.548 402.555 254.54 402.66Z" fill="#263238"/>
<path opacity="0.1" d="M254.54 402.66C254.46 403.66 254.32 405.49 254.16 406.83C254.135 407.042 254.194 407.256 254.325 407.424C254.456 407.593 254.648 407.703 254.86 407.73C258.326 408.013 261.811 407.973 265.27 407.61C265.441 407.598 265.603 407.533 265.734 407.424C265.865 407.314 265.958 407.166 266 407L266.87 403.35C266.897 403.233 266.897 403.112 266.872 402.995C266.846 402.878 266.796 402.768 266.723 402.673C266.651 402.578 266.558 402.499 266.452 402.444C266.346 402.388 266.23 402.356 266.11 402.35L255.4 401.93C255.295 401.92 255.19 401.932 255.09 401.964C254.99 401.995 254.897 402.047 254.817 402.114C254.737 402.182 254.671 402.266 254.624 402.359C254.576 402.453 254.548 402.555 254.54 402.66Z" fill="white"/>
<path d="M259.31 185.79C259.096 191.514 259.176 197.245 259.55 202.96C259.84 210.42 260.35 217.75 261.43 229.96H299C298.25 219.38 299.48 207.34 306.22 183.55C306.617 182.306 306.731 180.988 306.553 179.695C306.375 178.401 305.91 177.163 305.192 176.072C304.474 174.981 303.521 174.064 302.403 173.389C301.285 172.714 300.03 172.298 298.73 172.17C297.24 172.02 295.67 171.9 294.05 171.82C288.391 171.412 282.709 171.412 277.05 171.82C275.19 171.99 273.28 172.22 271.44 172.47C268.183 172.93 265.189 174.512 262.975 176.944C260.76 179.376 259.464 182.505 259.31 185.79V185.79Z" fill="white"/>
<path d="M292.81 152.65C291.33 158.13 289.51 168.18 293.07 171.84C293.07 171.84 287.88 171.06 276.85 177.84C273.66 173.26 276.03 171.84 276.03 171.84C282.25 170.38 282.43 165.84 281.69 161.58L292.81 152.65Z" fill="#FFB573"/>
<path d="M279.17 176.5C281.24 177.88 282.17 183.24 282.17 183.24C282.17 183.24 295.89 178.05 295.39 171.99C294.292 171.381 293.227 170.713 292.2 169.99C292.2 169.99 281.29 174.41 279.17 176.5Z" fill="#407BFF"/>
<path d="M275.72 175.92C274.692 177.807 273.929 179.825 273.45 181.92C267.94 177.37 274.35 171.85 274.35 171.85C275.348 171.296 276.516 171.128 277.63 171.38C276.835 171.798 276.21 172.48 275.862 173.308C275.514 174.136 275.464 175.059 275.72 175.92V175.92Z" fill="#407BFF"/>
<path opacity="0.2" d="M288.28 156.29L281.69 161.58C281.877 162.569 281.977 163.573 281.99 164.58C284.35 164.24 287.75 161.68 288.18 159.24C288.389 158.271 288.423 157.271 288.28 156.29V156.29Z" fill="black"/>
<path d="M297.49 141.65C295.83 150.5 295.31 154.27 290.26 158.52C282.66 164.91 272.26 161.52 271.26 152.52C270.37 144.4 273.26 131.28 282.36 128.36C284.294 127.673 286.377 127.515 288.393 127.902C290.409 128.29 292.285 129.208 293.827 130.563C295.369 131.917 296.522 133.659 297.166 135.608C297.81 137.557 297.921 139.643 297.49 141.65V141.65Z" fill="#FFB573"/>
<path d="M291.09 130.15C288.4 137.31 294.16 141.57 295.44 147.76C302.11 143.33 302.58 124.81 291.09 130.15Z" fill="#263238"/>
<path d="M292.44 142.12C292.193 142.12 291.95 142.061 291.73 141.95C291.55 141.849 291.393 141.713 291.268 141.55C291.143 141.386 291.051 141.199 291 141C290.935 140.804 290.91 140.597 290.925 140.391C290.941 140.185 290.997 139.984 291.09 139.8C291.28 139.431 291.606 139.151 292 139.02L296.68 137.5C296.877 137.434 297.085 137.408 297.292 137.423C297.499 137.438 297.701 137.493 297.887 137.586C298.073 137.679 298.238 137.807 298.374 137.964C298.51 138.121 298.614 138.303 298.68 138.5C298.745 138.697 298.772 138.905 298.757 139.112C298.742 139.319 298.687 139.521 298.594 139.707C298.501 139.893 298.373 140.059 298.216 140.195C298.059 140.331 297.877 140.434 297.68 140.5V140.5L292.92 142C292.767 142.065 292.605 142.105 292.44 142.12V142.12ZM297.12 137.96C297.007 137.961 296.896 137.982 296.79 138.02L292.11 139.54C291.841 139.627 291.618 139.817 291.489 140.068C291.36 140.319 291.335 140.611 291.42 140.88C291.509 141.148 291.699 141.371 291.95 141.5C292.075 141.565 292.212 141.605 292.353 141.617C292.494 141.629 292.635 141.613 292.77 141.57L297.45 140.04C297.583 139.997 297.706 139.928 297.812 139.837C297.918 139.747 298.005 139.636 298.068 139.511C298.131 139.387 298.169 139.251 298.18 139.112C298.191 138.973 298.174 138.833 298.13 138.7C298.09 138.565 298.022 138.44 297.931 138.334C297.84 138.227 297.727 138.14 297.6 138.08C297.449 138.014 297.284 137.987 297.12 138V137.96Z" fill="white"/>
<path d="M283.47 143.12C283.36 143.87 282.89 144.45 282.41 144.41C281.93 144.37 281.63 143.74 281.73 142.99C281.83 142.24 282.32 141.66 282.8 141.7C283.28 141.74 283.58 142.37 283.47 143.12Z" fill="#263238"/>
<path d="M274.43 142.59C274.32 143.34 273.84 143.92 273.36 143.88C272.88 143.84 272.58 143.21 272.69 142.46C272.8 141.71 273.27 141.13 273.75 141.17C274.23 141.21 274.53 141.84 274.43 142.59Z" fill="#263238"/>
<path d="M274 141.22L272.31 140.58C272.31 140.58 273 142.05 274 141.22Z" fill="#263238"/>
<path d="M276.77 144C275.866 145.665 274.754 147.207 273.46 148.59C273.804 148.892 274.213 149.111 274.655 149.231C275.097 149.35 275.56 149.367 276.01 149.28L276.77 144Z" fill="#ED893E"/>
<path d="M279.83 152.36C279.414 152.395 278.996 152.395 278.58 152.36C278.552 152.358 278.524 152.349 278.5 152.336C278.475 152.322 278.453 152.303 278.436 152.281C278.419 152.258 278.407 152.232 278.401 152.204C278.395 152.176 278.394 152.148 278.4 152.12C278.41 152.062 278.441 152.009 278.487 151.972C278.533 151.935 278.591 151.917 278.65 151.92C279.591 151.989 280.536 151.845 281.413 151.499C282.291 151.152 283.08 150.613 283.72 149.92C283.74 149.898 283.764 149.881 283.79 149.869C283.817 149.858 283.846 149.852 283.875 149.852C283.904 149.852 283.933 149.858 283.96 149.869C283.987 149.881 284.01 149.898 284.03 149.92C284.071 149.961 284.094 150.017 284.094 150.075C284.094 150.133 284.071 150.189 284.03 150.23C282.936 151.428 281.443 152.185 279.83 152.36V152.36Z" fill="#263238"/>
<path d="M298.49 149.17C298.016 149.889 297.396 150.501 296.671 150.966C295.946 151.431 295.131 151.739 294.28 151.87C292.16 152.11 291.62 149.64 292.65 147.41C293.58 145.41 295.79 142.86 297.71 143.66C299.63 144.46 299.82 147.27 298.49 149.17Z" fill="#FFB573"/>
<path d="M297.39 152.23C297.39 152.657 297.263 153.075 297.026 153.43C296.788 153.785 296.451 154.062 296.056 154.225C295.662 154.389 295.227 154.432 294.808 154.348C294.389 154.265 294.005 154.059 293.702 153.757C293.4 153.455 293.195 153.07 293.111 152.651C293.028 152.232 293.071 151.798 293.234 151.403C293.398 151.009 293.675 150.671 294.03 150.434C294.385 150.196 294.803 150.07 295.23 150.07C295.513 150.07 295.794 150.126 296.056 150.234C296.318 150.343 296.557 150.502 296.757 150.702C296.958 150.903 297.117 151.141 297.225 151.403C297.334 151.665 297.39 151.946 297.39 152.23V152.23Z" fill="white"/>
<path d="M286.26 138.77C286.203 138.769 286.147 138.756 286.095 138.731C286.043 138.707 285.997 138.673 285.96 138.63C285.608 138.225 285.163 137.913 284.662 137.722C284.162 137.53 283.622 137.464 283.09 137.53C283.035 137.541 282.979 137.542 282.924 137.531C282.869 137.52 282.817 137.497 282.771 137.466C282.726 137.434 282.687 137.393 282.657 137.345C282.628 137.298 282.608 137.245 282.6 137.19C282.587 137.072 282.619 136.953 282.69 136.857C282.76 136.761 282.863 136.694 282.98 136.67C283.651 136.567 284.338 136.637 284.975 136.874C285.611 137.11 286.178 137.504 286.62 138.02C286.695 138.109 286.732 138.224 286.723 138.34C286.714 138.456 286.659 138.564 286.57 138.64C286.483 138.716 286.374 138.761 286.26 138.77V138.77Z" fill="#263238"/>
<path d="M271.89 138.17C271.78 138.184 271.669 138.155 271.58 138.09C271.535 138.053 271.498 138.008 271.471 137.957C271.444 137.906 271.427 137.85 271.421 137.792C271.416 137.735 271.422 137.677 271.439 137.621C271.456 137.566 271.483 137.514 271.52 137.47C271.937 136.895 272.48 136.423 273.108 136.091C273.735 135.758 274.43 135.573 275.14 135.55C275.196 135.552 275.252 135.566 275.302 135.591C275.353 135.616 275.397 135.651 275.433 135.695C275.469 135.738 275.495 135.789 275.51 135.843C275.525 135.897 275.529 135.954 275.52 136.01C275.508 136.127 275.451 136.236 275.362 136.314C275.273 136.392 275.158 136.433 275.04 136.43C274.478 136.458 273.93 136.613 273.436 136.883C272.943 137.153 272.517 137.532 272.19 137.99C272.115 138.084 272.008 138.148 271.89 138.17Z" fill="#263238"/>
<path d="M283 141.76L281.31 141.11C281.31 141.11 282 142.58 283 141.76Z" fill="#263238"/>
<path d="M295.82 170C291.65 172.86 286.07 203.62 284.47 249.38C283.502 277.032 284.447 304.718 287.3 332.24C287.3 332.24 305.57 312.16 316.98 306.24C317.2 263.54 308.11 234.37 309.16 223.59C310.21 212.81 316.16 183 311.59 177.4C307.02 171.8 295.82 170 295.82 170Z" fill="#407BFF"/>
<path opacity="0.8" d="M295.82 170C291.65 172.86 286.07 203.62 284.47 249.38C283.502 277.032 284.447 304.718 287.3 332.24C287.3 332.24 305.57 312.16 316.98 306.24C317.2 263.54 308.11 234.37 309.16 223.59C310.21 212.81 316.16 183 311.59 177.4C307.02 171.8 295.82 170 295.82 170Z" fill="white"/>
<path d="M274.68 171.53C269.82 178.74 259.07 268.53 269.21 332.2C261.21 327.76 255.42 315.5 255.42 315.5C255.42 315.5 254.63 260.08 258.42 229.98C257.64 194.64 253.44 170.7 274.68 171.53Z" fill="#407BFF"/>
<path opacity="0.8" d="M274.68 171.53C269.82 178.74 259.07 268.53 269.21 332.2C261.21 327.76 255.42 315.5 255.42 315.5C255.42 315.5 254.63 260.08 258.42 229.98C257.64 194.64 253.44 170.7 274.68 171.53Z" fill="white"/>
<path d="M289.09 230.41C286.568 225.6 284.288 220.667 282.26 215.63C279.18 207.85 276.72 198.63 276.72 198.63C276.72 198.63 253.4 197.75 249.06 200.38C251.6 210.27 262.62 234.13 262.62 234.13C262.62 234.13 280.25 233.82 289.09 230.41Z" fill="#E0E0E0"/>
<path d="M265.12 235.68L286.32 235.04C288.45 234.98 289.55 233.42 288.75 231.58L275.38 200.77C274.873 199.795 274.107 198.978 273.167 198.409C272.227 197.839 271.149 197.539 270.05 197.54L248.85 198.18C246.72 198.24 245.63 199.8 246.43 201.64L259.8 232.45C260.307 233.423 261.071 234.239 262.009 234.809C262.947 235.378 264.023 235.68 265.12 235.68V235.68Z" fill="#407BFF"/>
<path d="M264 236.93C262.877 236.903 261.782 236.575 260.828 235.981C259.875 235.386 259.099 234.547 258.58 233.55L245.2 202.74C244.999 202.342 244.9 201.9 244.914 201.455C244.928 201.009 245.054 200.574 245.28 200.19C245.57 199.783 245.956 199.454 246.405 199.234C246.854 199.014 247.351 198.909 247.85 198.93L269.04 198.29C270.189 198.29 271.316 198.605 272.298 199.201C273.28 199.797 274.08 200.651 274.61 201.67L288 232.48C288.199 232.88 288.296 233.323 288.282 233.77C288.268 234.217 288.143 234.653 287.92 235.04C287.629 235.446 287.242 235.772 286.793 235.991C286.345 236.209 285.849 236.312 285.35 236.29L264.15 236.93H264V236.93ZM264.13 236.43L285.33 235.79C285.743 235.81 286.154 235.729 286.528 235.555C286.903 235.381 287.229 235.118 287.48 234.79C287.654 234.469 287.745 234.11 287.745 233.745C287.745 233.38 287.654 233.021 287.48 232.7L274.11 201.89C273.629 200.956 272.899 200.174 272.001 199.63C271.102 199.087 270.07 198.803 269.02 198.81L247.82 199.45C247.406 199.43 246.993 199.511 246.617 199.685C246.241 199.859 245.913 200.122 245.66 200.45C245.487 200.771 245.396 201.13 245.396 201.495C245.396 201.86 245.487 202.219 245.66 202.54L259 233.35C259.486 234.286 260.221 235.07 261.125 235.613C262.029 236.157 263.065 236.44 264.12 236.43H264.13Z" fill="white"/>
<path d="M276.56 212.63L279.07 211.4C279.539 211.17 280.055 211.056 280.577 211.067C281.099 211.077 281.611 211.212 282.07 211.46L286.39 213.81C287.245 214.268 287.977 214.926 288.522 215.729C289.068 216.532 289.41 217.455 289.52 218.42L289.67 219.63C285.67 221.95 279.57 221.49 279.57 221.49L277.82 221.55C277.461 221.573 277.102 221.524 276.762 221.407C276.423 221.29 276.11 221.106 275.842 220.867C275.574 220.628 275.356 220.338 275.201 220.014C275.047 219.69 274.958 219.338 274.94 218.98L274.78 215.53C274.761 214.925 274.92 214.329 275.236 213.814C275.553 213.298 276.013 212.887 276.56 212.63V212.63Z" fill="#FFB573"/>
<path opacity="0.2" d="M303.77 189.09C302.93 202.83 302.88 215.41 306.55 217.53C310.85 213.3 310.54 207.38 303.77 189.09Z" fill="#407BFF"/>
<path d="M313 179.39C313.54 180.93 314 182.3 314.41 183.75C314.82 185.2 315.27 186.61 315.67 188.05C316.47 190.93 317.24 193.82 317.89 196.76C319.362 202.837 320.16 209.058 320.27 215.31C320.28 215.459 320.28 215.61 320.27 215.76V215.82C320.092 217.707 319.338 219.495 318.11 220.94C317.185 222.005 316.061 222.878 314.8 223.51C313.145 224.329 311.375 224.889 309.55 225.17C306.748 225.599 303.913 225.766 301.08 225.67C298.41 225.67 295.83 225.46 293.27 225.22C290.71 224.98 288.22 224.71 285.55 224.31L287.55 212.31C289.71 212.67 292.11 213 294.39 213.23C296.67 213.46 298.99 213.58 301.21 213.6C303.269 213.637 305.328 213.486 307.36 213.15C307.954 213.049 308.532 212.871 309.08 212.62C309.15 212.62 309 212.62 308.66 212.98C308.232 213.486 307.967 214.11 307.9 214.77V215.29C307.792 212.751 307.514 210.222 307.07 207.72C306.62 205.12 305.98 202.48 305.28 199.86C304.58 197.24 303.76 194.61 302.87 192.01C302.42 190.71 301.96 189.41 301.47 188.13C300.98 186.85 300.47 185.52 300.01 184.38L313 179.39Z" fill="#407BFF"/>
<path opacity="0.8" d="M313 179.39C313.54 180.93 314 182.3 314.41 183.75C314.82 185.2 315.27 186.61 315.67 188.05C316.47 190.93 317.24 193.82 317.89 196.76C319.362 202.837 320.16 209.058 320.27 215.31C320.28 215.459 320.28 215.61 320.27 215.76V215.82C320.092 217.707 319.338 219.495 318.11 220.94C317.185 222.005 316.061 222.878 314.8 223.51C313.145 224.329 311.375 224.889 309.55 225.17C306.748 225.599 303.913 225.766 301.08 225.67C298.41 225.67 295.83 225.46 293.27 225.22C290.71 224.98 288.22 224.71 285.55 224.31L287.55 212.31C289.71 212.67 292.11 213 294.39 213.23C296.67 213.46 298.99 213.58 301.21 213.6C303.269 213.637 305.328 213.486 307.36 213.15C307.954 213.049 308.532 212.871 309.08 212.62C309.15 212.62 309 212.62 308.66 212.98C308.232 213.486 307.967 214.11 307.9 214.77V215.29C307.792 212.751 307.514 210.222 307.07 207.72C306.62 205.12 305.98 202.48 305.28 199.86C304.58 197.24 303.76 194.61 302.87 192.01C302.42 190.71 301.96 189.41 301.47 188.13C300.98 186.85 300.47 185.52 300.01 184.38L313 179.39Z" fill="white"/>
<path d="M293.79 132.71C289.28 137.22 269.05 129.91 269.85 137.41C266.73 130.41 271.64 122.88 284.11 122.88C299.37 122.88 296.53 130 293.79 132.71Z" fill="#263238"/>
<path d="M239.72 155.76L238.72 155.46C239.382 153.394 239.759 151.248 239.84 149.08H240.84C240.767 151.347 240.39 153.594 239.72 155.76V155.76Z" fill="#407BFF"/>
<path d="M239.36 143C238.702 139.856 237.426 136.874 235.606 134.227C233.787 131.58 231.459 129.32 228.76 127.58L229.31 126.74C232.113 128.555 234.529 130.908 236.417 133.663C238.305 136.418 239.628 139.52 240.31 142.79L239.36 143Z" fill="#407BFF"/>
<path d="M215.42 173.54C210.84 173.536 206.346 172.297 202.412 169.953C198.477 167.609 195.248 164.247 193.065 160.221C190.882 156.195 189.826 151.654 190.008 147.078C190.19 142.502 191.604 138.06 194.1 134.22L194.93 134.76C192.534 138.45 191.178 142.718 191.004 147.115C190.831 151.511 191.846 155.873 193.944 159.741C196.041 163.609 199.143 166.839 202.923 169.091C206.703 171.344 211.02 172.535 215.42 172.54V173.54Z" fill="#407BFF"/>
<path d="M215.44 170.19C227.645 170.19 237.54 160.295 237.54 148.09C237.54 135.884 227.645 125.99 215.44 125.99C203.234 125.99 193.34 135.884 193.34 148.09C193.34 160.295 203.234 170.19 215.44 170.19Z" fill="#407BFF"/>
<path opacity="0.5" d="M212.42 161.51L212.13 161.32C214.71 154.39 220.94 149.83 224.63 143.62C225.82 141.62 225.02 138.89 223.29 137.35L223.47 136.97C223.55 136.789 223.557 136.584 223.49 136.398C223.423 136.211 223.287 136.058 223.11 135.97C222.928 135.89 222.722 135.885 222.535 135.954C222.349 136.023 222.197 136.161 222.11 136.34L222.01 136.54C220.1 135.78 218.1 136.71 216.94 138.63C213.25 144.84 207.02 149.4 204.44 156.33C204.277 156.23 204.082 156.198 203.896 156.239C203.709 156.28 203.546 156.391 203.44 156.55C203.338 156.712 203.304 156.908 203.345 157.095C203.386 157.282 203.499 157.445 203.66 157.55L211.66 162.76C211.74 162.825 211.833 162.872 211.933 162.899C212.033 162.926 212.137 162.932 212.239 162.916C212.341 162.9 212.439 162.863 212.526 162.808C212.613 162.752 212.687 162.678 212.744 162.592C212.801 162.506 212.839 162.408 212.856 162.306C212.873 162.204 212.868 162.1 212.843 162C212.817 161.9 212.77 161.806 212.706 161.725C212.642 161.644 212.561 161.578 212.47 161.53L212.42 161.51Z" fill="white"/>
<path d="M209.84 151C209.731 150.997 209.625 150.958 209.54 150.89C209.487 150.851 209.443 150.801 209.409 150.744C209.376 150.687 209.355 150.624 209.346 150.559C209.338 150.494 209.343 150.427 209.361 150.364C209.378 150.3 209.409 150.241 209.45 150.19C210.45 148.96 211.45 147.72 212.45 146.52C212.492 146.467 212.545 146.424 212.605 146.392C212.664 146.36 212.73 146.341 212.797 146.335C212.864 146.33 212.932 146.337 212.996 146.359C213.06 146.38 213.119 146.414 213.17 146.458C213.22 146.503 213.262 146.557 213.291 146.618C213.32 146.679 213.336 146.745 213.339 146.813C213.342 146.88 213.331 146.947 213.307 147.01C213.283 147.074 213.247 147.131 213.2 147.18C212.2 148.36 211.14 149.59 210.2 150.81C210.156 150.864 210.101 150.908 210.039 150.941C209.977 150.973 209.91 150.993 209.84 151V151Z" fill="white"/>
<path d="M206.08 157.43C206.024 157.445 205.966 157.445 205.91 157.43C205.847 157.409 205.79 157.375 205.74 157.331C205.691 157.287 205.651 157.234 205.623 157.174C205.595 157.114 205.58 157.049 205.577 156.983C205.575 156.917 205.586 156.852 205.61 156.79C206.149 155.367 206.84 154.006 207.67 152.73C207.705 152.674 207.751 152.626 207.806 152.588C207.86 152.55 207.921 152.523 207.985 152.509C208.05 152.494 208.116 152.493 208.182 152.504C208.247 152.516 208.309 152.54 208.365 152.575C208.421 152.611 208.469 152.657 208.507 152.711C208.545 152.765 208.572 152.826 208.586 152.89C208.601 152.955 208.602 153.022 208.591 153.087C208.579 153.152 208.555 153.214 208.52 153.27C207.716 154.484 207.045 155.782 206.52 157.14C206.479 157.223 206.417 157.294 206.339 157.345C206.262 157.396 206.172 157.425 206.08 157.43V157.43Z" fill="white"/>
<path d="M217.88 150C217.763 149.998 217.65 149.956 217.56 149.88C217.509 149.839 217.467 149.787 217.437 149.729C217.406 149.671 217.388 149.608 217.382 149.543C217.377 149.477 217.384 149.412 217.404 149.349C217.425 149.287 217.457 149.23 217.5 149.18C218.2 148.37 218.86 147.59 219.5 146.81C219.541 146.759 219.591 146.716 219.649 146.685C219.707 146.653 219.77 146.633 219.835 146.627C219.9 146.62 219.966 146.627 220.029 146.646C220.092 146.666 220.15 146.698 220.2 146.74C220.302 146.824 220.366 146.945 220.379 147.076C220.392 147.207 220.353 147.338 220.27 147.44C219.62 148.23 218.95 149.02 218.27 149.82C218.222 149.877 218.163 149.923 218.095 149.954C218.028 149.985 217.954 150.001 217.88 150Z" fill="white"/>
<path d="M221.69 145.34C221.586 145.339 221.485 145.308 221.4 145.25C221.294 145.17 221.224 145.053 221.203 144.922C221.183 144.792 221.214 144.658 221.29 144.55C221.81 143.82 222.29 143.13 222.68 142.44C222.904 141.852 222.938 141.208 222.777 140.6C222.615 139.991 222.267 139.449 221.78 139.05C221.721 139.01 221.672 138.958 221.635 138.897C221.598 138.836 221.574 138.768 221.565 138.698C221.557 138.627 221.563 138.555 221.584 138.487C221.606 138.42 221.641 138.357 221.688 138.304C221.736 138.251 221.794 138.208 221.859 138.18C221.924 138.151 221.994 138.136 222.065 138.137C222.137 138.137 222.207 138.153 222.271 138.183C222.336 138.213 222.393 138.256 222.44 138.31C223.109 138.856 223.579 139.608 223.778 140.448C223.977 141.289 223.893 142.172 223.54 142.96C223.11 143.67 222.64 144.38 222.1 145.14C222.052 145.203 221.99 145.254 221.918 145.288C221.847 145.323 221.769 145.341 221.69 145.34Z" fill="white"/>
<path d="M202.94 296.82C203.55 302.01 216.53 300.55 224.94 293.01C219.71 295.62 208.64 293.84 203.94 295.23C205.2 293.23 206.45 291.3 207.67 289.5C208.93 293.05 218.57 291.27 224.67 285.21C220.92 287.34 212.95 286.65 209.01 287.63C211.01 284.73 212.95 282.15 214.67 279.94C217.44 281.12 223.99 277.35 227.26 271.4C224.2 274.54 215.55 275.91 213.41 278.16C213.464 278.517 213.593 278.858 213.79 279.16C212.96 280.22 212.09 281.37 211.18 282.59C210.51 279.32 205.38 273.13 205.11 268.98C203.53 276.61 207.11 284.86 210.43 283.62C208.94 285.67 207.36 287.91 205.75 290.35C204.54 286.72 198.32 280.41 197.61 275.85C196.61 284.34 201.22 293.01 204.78 291.85C203.48 293.85 202.17 295.95 200.86 298.15C198.86 293.82 189.63 286.91 187.86 281.24C188.18 292.02 195.44 302 199.72 300.09C198.387 302.35 197.1 304.707 195.86 307.16C193.15 302.47 182.23 295.55 179.76 289.33C181.08 301.33 190.01 311.85 194.68 309.51C193.28 312.34 191.94 315.27 190.68 318.3C187.32 313.93 173.92 308.97 169.93 302.89C173.88 315.13 185.51 324.16 189.76 320.53C188.148 324.602 186.746 328.754 185.56 332.97C181.42 328.97 166.84 325.84 161.81 320.16C167.68 332.16 180.93 339.73 184.87 335.5C183.881 339.288 183.097 343.127 182.52 347C177.11 343.37 160.23 342.84 153.52 337.53C162.36 349.53 178.31 355.3 182.16 350.2C181.055 359.708 181.545 369.333 183.61 378.68L184.74 378.42C182.43 367.84 182.128 356.921 183.85 346.23C185.61 352.76 203.16 350.81 214.76 340.74C206.98 344.45 190.3 341.23 184.28 343.63C185.014 339.55 185.976 335.513 187.16 331.54C189.03 336.95 204.16 335.79 214.56 327.54C207.74 330.43 193.78 327.21 188.03 328.75C189.3 324.84 190.73 321.05 192.29 317.41C193.63 322.88 208.4 322.09 218.65 314.25C212.14 316.88 198.99 313.65 193.37 314.94C194.81 311.73 196.37 308.65 197.89 305.71C198.49 311.42 213.02 310.57 222.89 302.71C216.75 305.33 204.15 302.49 198.89 303.87C200.2 301.45 201.57 299.07 202.94 296.82Z" fill="#407BFF"/>
<path opacity="0.3" d="M202.94 296.82C203.55 302.01 216.53 300.55 224.94 293.01C219.71 295.62 208.64 293.84 203.94 295.23C205.2 293.23 206.45 291.3 207.67 289.5C208.93 293.05 218.57 291.27 224.67 285.21C220.92 287.34 212.95 286.65 209.01 287.63C211.01 284.73 212.95 282.15 214.67 279.94C217.44 281.12 223.99 277.35 227.26 271.4C224.2 274.54 215.55 275.91 213.41 278.16C213.464 278.517 213.593 278.858 213.79 279.16C212.96 280.22 212.09 281.37 211.18 282.59C210.51 279.32 205.38 273.13 205.11 268.98C203.53 276.61 207.11 284.86 210.43 283.62C208.94 285.67 207.36 287.91 205.75 290.35C204.54 286.72 198.32 280.41 197.61 275.85C196.61 284.34 201.22 293.01 204.78 291.85C203.48 293.85 202.17 295.95 200.86 298.15C198.86 293.82 189.63 286.91 187.86 281.24C188.18 292.02 195.44 302 199.72 300.09C198.387 302.35 197.1 304.707 195.86 307.16C193.15 302.47 182.23 295.55 179.76 289.33C181.08 301.33 190.01 311.85 194.68 309.51C193.28 312.34 191.94 315.27 190.68 318.3C187.32 313.93 173.92 308.97 169.93 302.89C173.88 315.13 185.51 324.16 189.76 320.53C188.148 324.602 186.746 328.754 185.56 332.97C181.42 328.97 166.84 325.84 161.81 320.16C167.68 332.16 180.93 339.73 184.87 335.5C183.881 339.288 183.097 343.127 182.52 347C177.11 343.37 160.23 342.84 153.52 337.53C162.36 349.53 178.31 355.3 182.16 350.2C181.055 359.708 181.545 369.333 183.61 378.68L184.74 378.42C182.43 367.84 182.128 356.921 183.85 346.23C185.61 352.76 203.16 350.81 214.76 340.74C206.98 344.45 190.3 341.23 184.28 343.63C185.014 339.55 185.976 335.513 187.16 331.54C189.03 336.95 204.16 335.79 214.56 327.54C207.74 330.43 193.78 327.21 188.03 328.75C189.3 324.84 190.73 321.05 192.29 317.41C193.63 322.88 208.4 322.09 218.65 314.25C212.14 316.88 198.99 313.65 193.37 314.94C194.81 311.73 196.37 308.65 197.89 305.71C198.49 311.42 213.02 310.57 222.89 302.71C216.75 305.33 204.15 302.49 198.89 303.87C200.2 301.45 201.57 299.07 202.94 296.82Z" fill="black"/>
<path d="M172 379L170.92 378.93C173.38 342.32 144.62 311.93 132.14 300.61L132.86 299.81C145.45 311.3 174.47 342 172 379Z" fill="#407BFF"/>
<path d="M142.52 310.23C142.52 307.34 147.38 300.82 147.38 296.74C149.47 304.32 146 313 142.52 310.23Z" fill="#407BFF"/>
<path d="M137.14 304.42C136.88 301.86 140.69 295.69 140.36 292.08C142.82 298.63 140.41 306.55 137.14 304.42Z" fill="#407BFF"/>
<path d="M147.42 316C147.91 312.36 155.26 305 156.01 299.91C157.26 309.81 151.25 320 147.42 316Z" fill="#407BFF"/>
<path d="M152.56 322.79C153.44 318.74 162.36 311.17 163.66 305.46C164.18 316.73 156.51 327.7 152.56 322.79Z" fill="#407BFF"/>
<path d="M158.24 330.86C160.01 326.86 170.86 320.92 173.42 315.29C171.56 327.07 161.29 336.79 158.24 330.86Z" fill="#407BFF"/>
<path d="M164.26 342.2C166.68 338.32 178.78 333.81 182.26 328.37C178.58 340.26 166.52 348.78 164.26 342.2Z" fill="#407BFF"/>
<path d="M168.42 353.32C171.9 349.49 186.29 346.9 191.27 341.55C184.76 354.05 169.6 361.1 168.42 353.32Z" fill="#407BFF"/>
<path d="M140.78 308.06C138.09 307.01 130.26 309.28 126.44 307.83C132.79 312.47 142.11 312.25 140.78 308.06Z" fill="#407BFF"/>
<path d="M134.75 300.63C132.75 299.06 125.46 299.05 122.57 296.87C126.83 302.41 134.84 304.54 134.75 300.63Z" fill="#407BFF"/>
<path d="M145.43 313.56C141.94 312.4 132.14 315.82 127.19 314.24C135.57 319.71 147.4 318.79 145.43 313.56Z" fill="#407BFF"/>
<path d="M150.63 320C146.63 318.93 135.82 323.43 130.15 322C139.94 327.54 153.2 325.71 150.63 320Z" fill="#407BFF"/>
<path d="M156.66 328.29C152.4 327.29 141.08 332.24 135.06 330.83C145.53 336.53 159.5 334.32 156.66 328.29Z" fill="#407BFF"/>
<path d="M162.7 338.9C158.27 337.74 146.37 342.75 140.1 341.18C150.94 347.31 165.56 345.24 162.7 338.9Z" fill="#407BFF"/>
<path d="M167.28 350.56C162.34 349.03 148.62 354.08 141.62 351.99C153.56 359.47 170.2 357.88 167.28 350.56Z" fill="#407BFF"/>
<path d="M163.86 416.24H188.27C189.016 416.244 189.737 415.969 190.292 415.47C190.846 414.971 191.195 414.283 191.27 413.54L196 367.8C196.045 367.38 196.001 366.955 195.87 366.553C195.74 366.152 195.526 365.782 195.243 365.469C194.959 365.155 194.613 364.905 194.227 364.735C193.84 364.564 193.422 364.478 193 364.48H159.16C158.737 364.478 158.319 364.564 157.933 364.735C157.546 364.905 157.2 365.155 156.917 365.469C156.634 365.782 156.42 366.152 156.289 366.553C156.159 366.955 156.115 367.38 156.16 367.8L160.85 413.54C160.924 414.284 161.275 414.974 161.831 415.473C162.388 415.973 163.112 416.246 163.86 416.24V416.24Z" fill="#407BFF"/>
<path opacity="0.6" d="M163.86 416.24H188.27C189.016 416.244 189.737 415.969 190.292 415.47C190.846 414.971 191.195 414.283 191.27 413.54L196 367.8C196.045 367.38 196.001 366.955 195.87 366.553C195.74 366.152 195.526 365.782 195.243 365.469C194.959 365.155 194.613 364.905 194.227 364.735C193.84 364.564 193.422 364.478 193 364.48H159.16C158.737 364.478 158.319 364.564 157.933 364.735C157.546 364.905 157.2 365.155 156.917 365.469C156.634 365.782 156.42 366.152 156.289 366.553C156.159 366.955 156.115 367.38 156.16 367.8L160.85 413.54C160.924 414.284 161.275 414.974 161.831 415.473C162.388 415.973 163.112 416.246 163.86 416.24V416.24Z" fill="white"/>
</g>
<defs>
<filter id="filter0_d_205_486" x="-4" y="0" width="508" height="508" filterUnits="userSpaceOnUse" color-interpolation-filters="sRGB">
<feFlood flood-opacity="0" result="BackgroundImageFix"/>
<feColorMatrix in="SourceAlpha" type="matrix" values="0 0 0 0 0 0 0 0 0 0 0 0 0 0 0 0 0 0 127 0" result="hardAlpha"/>
<feOffset dy="4"/>
<feGaussianBlur stdDeviation="2"/>
<feComposite in2="hardAlpha" operator="out"/>
<feColorMatrix type="matrix" values="0 0 0 0 0 0 0 0 0 0 0 0 0 0 0 0 0 0 0.25 0"/>
<feBlend mode="normal" in2="BackgroundImageFix" result="effect1_dropShadow_205_486"/>
<feBlend mode="normal" in="SourceGraphic" in2="effect1_dropShadow_205_486" result="shape"/>
</filter>
</defs>
</svg>
